<?xml version="1.0" standalone="no"?>
<!DOCTYPE svg PUBLIC "-//W3C//DTD SVG 1.1//EN" "http://www.w3.org/Graphics/SVG/1.1/DTD/svg11.dtd" >
<svg xmlns="http://www.w3.org/2000/svg">
<metadata>
Created by FontForge 20120731 at Fri Sep  4 16:21:46 2015
 By Ads
</metadata>
<defs>
<font id="iconfont" horiz-adv-x="1024" >
  <font-face 
    font-family="iconfont"
    font-weight="500"
    font-stretch="normal"
    units-per-em="1024"
    panose-1="2 0 6 3 0 0 0 0 0 0"
    ascent="812"
    descent="-212"
    x-height="792"
    bbox="-14.0156 -263 1094 1095"
    underline-thickness="50"
    underline-position="-100"
    unicode-range="U+0078-F029E"
  />
<missing-glyph horiz-adv-x="374" 
d="M34 0v682h272v-682h-272zM68 34h204v614h-204v-614z" />
    <glyph glyph-name=".notdef" horiz-adv-x="374" 
d="M34 0v682h272v-682h-272zM68 34h204v614h-204v-614z" />
    <glyph glyph-name=".null" horiz-adv-x="0" 
 />
    <glyph glyph-name="nonmarkingreturn" horiz-adv-x="341" 
 />
    <glyph glyph-name="x" unicode="x" horiz-adv-x="1001" 
d="M281 543q-27 -1 -53 -1h-83q-18 0 -36.5 -6t-32.5 -18.5t-23 -32t-9 -45.5v-76h912v41q0 16 -0.5 30t-0.5 18q0 13 -5 29t-17 29.5t-31.5 22.5t-49.5 9h-133v-97h-438v97zM955 310v-52q0 -23 0.5 -52t0.5 -58t-10.5 -47.5t-26 -30t-33 -16t-31.5 -4.5q-14 -1 -29.5 -0.5
t-29.5 0.5h-32l-45 128h-439l-44 -128h-29h-34q-20 0 -45 1q-25 0 -41 9.5t-25.5 23t-13.5 29.5t-4 30v167h911zM163 247q-12 0 -21 -8.5t-9 -21.5t9 -21.5t21 -8.5q13 0 22 8.5t9 21.5t-9 21.5t-22 8.5zM316 123q-8 -26 -14 -48q-5 -19 -10.5 -37t-7.5 -25t-3 -15t1 -14.5
t9.5 -10.5t21.5 -4h37h67h81h80h64h36q23 0 34 12t2 38q-5 13 -9.5 30.5t-9.5 34.5q-5 19 -11 39h-368zM336 498v228q0 11 2.5 23t10 21.5t20.5 15.5t34 6h188q31 0 51.5 -14.5t20.5 -52.5v-227h-327z" />
    <glyph glyph-name="uni3432" unicode="&#x3432;" horiz-adv-x="1000" 
d="M122 513q66 -47 154 -120q-32 -37 -51 -57q-99 89 -147 126zM188 258q18 -7 36 -13.5t36 -12.5q-37 -154 -80 -339l-78 22q50 157 86 343zM155 740q67 -53 151 -128q-30 -31 -52 -55q-95 93 -144 135zM253 -12h86v287h549v-287h65v-63h-700v63zM372 707h481v-383h-65v38
h-351v-39h-65v384zM405 -12h95v225h-95v-225zM788 647h-351v-83h351v83zM437 422h351v84h-351v-84zM565 -12h95v225h-95v-225zM821 213h-96v-225h96v225z" />
    <glyph glyph-name="uni3433" unicode="&#x3433;" horiz-adv-x="1000" 
d="M331 753l66 -28q-19 -32 -42 -63h476v-59q-81 -98 -219 -171q146 -48 347 -59q-29 -41 -49 -74q-227 27 -381 94q-174 -75 -421 -118q-16 31 -37 64q218 31 380 93q-104 60 -163 143q-66 -75 -148 -144q-24 26 -49 48q158 127 240 274zM206 289h625v-410h-63v39h-499v-39
h-63v410zM269 128h218v108h-218v-108zM269 -29h218v107h-218v-107zM737 604h-394q71 -84 186 -139q124 59 208 139zM768 236h-218v-108h218v108zM550 -29h218v107h-218v-107z" />
    <glyph glyph-name="uni3434" unicode="&#x3434;" horiz-adv-x="1000" 
d="M139 691h126v-125h-126v125zM329 691h560v-125h-560v125zM139 442h126v-124h-126v124zM328 442h561v-124h-561v124zM139 191h126v-125h-126v125zM328 191h561v-125h-561v125z" />
    <glyph glyph-name="uni3435" unicode="&#x3435;" horiz-adv-x="1000" 
d="M441 207q0 31 21.5 52t51.5 21t51.5 -21t21.5 -52q0 -27 -14 -46.5t-38 -24.5l52 -148h-146l48 148q-16 3 -27 13.5t-16 25t-5 32.5zM331 426v73q0 76 53.5 129.5t129 53.5t129 -53.5t53.5 -129.5v-73h-365zM769 426v67q0 54 -19 102t-52.5 83.5t-81.5 56t-102 20.5
q-110 0 -183 -76t-73 -186v-67q-29 0 -54.5 -14.5t-40 -39.5t-14.5 -55v-329q0 -45 32 -77t77 -32h511q46 0 78 32t32 77v329q0 30 -15 55t-40 39.5t-55 14.5z" />
    <glyph glyph-name="uni3436" unicode="&#x3436;" horiz-adv-x="1000" 
d="M643 800h-72h-428q-20 0 -36 -9.5t-26 -26t-10 -35.5v-858q0 -19 10 -35.5t26 -26t36 -9.5h714q20 0 36 9.5t26 26t10 35.5v642zM827 514h-184v184zM143 -129v858h428v-215q0 -11 4 -22t10.5 -20t15 -15.5t19.5 -10t23 -3.5h214v-572h-714zM714 371h-90l-124 -156
l-123 156h-91l169 -214l-169 -214h90h1h123v71h-67l67 85l123 -156h91l-168 214z" />
    <glyph glyph-name="uni3437" unicode="&#x3437;" horiz-adv-x="1000" 
d="M601 179q-67 41 -107 139q-2 5 0 14q1 5 4 23t4 27q0 2 1 10t1 10t1 9.5t1 10.5t0.5 9.5t1 10.5t0.5 10v10v9q1 21 -9.5 32t-28.5 11q-21 0 -30 -8.5t-10 -32.5q0 -16 -1 -21t1 -21t2.5 -21t3.5 -21t4 -21t4.5 -20.5t4.5 -20.5q2 -8 1.5 -18t-4.5 -16q-14 -30 -28.5 -61
t-29.5 -60.5t-30 -59.5q-3 -5 -7 -9.5t-8 -7.5t-10 -7q-7 -5 -36.5 -24.5t-44.5 -32.5q-17 -13 -34 -45q-12 -22 13 -35q40 -22 71 16q17 20 45 59.5t34 48.5q11 15 22 18q25 7 171 43q11 2 19.5 0.5t18.5 -6.5q67 -35 117 -39q20 0 31.5 3t17 10t7.5 21q3 22 -5 33t-31 16
q-10 3 -14 3q-14 0 -35 -0.5t-39.5 -1t-34.5 -0.5q-17 -1 -25 4zM251 -28q21 48 74 87q-36 -63 -74 -87zM470 497q19 -9 21 -50t-15 -67q-5 21 -7.5 39.5t-2 38.5t3.5 39zM408 123q7 16 16 34.5t16 33.5t16.5 34.5t16.5 33.5q22 -27 77 -95q-12 -4 -19.5 -6t-19.5 -5.5
t-20.5 -6t-20 -5.5t-21 -6t-20.5 -6t-21 -6zM754 141q2 0 4 -1l2 -4l3 -2q1 -1 2.5 -3t2.5 -3l-15 -7q-15 -1 -31.5 3t-25 7.5t-31.5 13.5q54 9 89 -4zM643 800h-72h-428q-20 0 -36 -9.5t-26 -26t-10 -35.5v-858q0 -19 10 -35.5t26 -26t36 -9.5h714q20 0 36 9.5t26 26
t10 35.5v642zM827 514h-184v184zM143 -129v858h428v-215q0 -11 4 -22t10.5 -20t15 -15.5t19.5 -10t23 -3.5h214v-572h-714z" />
    <glyph glyph-name="uni3438" unicode="&#x3438;" horiz-adv-x="1000" 
d="M337 497q26 0 50.5 -10t42.5 -28.5t28.5 -42.5t10.5 -51q0 -54 -39 -93q-12 -12 -26.5 -20.5t-31.5 -13.5t-35 -5q-55 0 -94 39t-39 93.5t39 93.5q12 12 26.5 20.5t32 13t35.5 4.5zM700 636q1 1 2 1h4h110q39 0 67 -28q9 -9 16 -20t12 -23.5t7 -26.5l57 -329q1 -7 1 -13
q0 -35 -27 -61q-11 -12 -26.5 -20t-31.5 -10q-9 -2 -18 -2h-701q-9 0 -18 2q-17 2 -32 10t-27 20t-19.5 27.5t-7.5 33.5q0 6 2 13l57 329q7 43 34 70q29 28 68 28h342q4 0 8 -1l46 84q2 4 6 6t8 2t8 -2q5 -2 7 -7zM553 590h-324q-10 0 -18.5 -4t-15.5 -11q-5 -5 -9.5 -12
t-7.5 -15t-4 -17l-57 -329q-1 -1 -1 -2v-3q0 -15 13 -28q4 -4 9.5 -7.5t11.5 -5.5l12 -4h10h701h5h5q19 4 33 17q13 13 13 28q0 1 -0.5 2.5t-0.5 2.5l-57 329q-5 28 -21 44q-14 15 -34 15h-91l49 -88q3 -6 1 -13t-8 -10q-1 -1 -2.5 -1.5t-2.5 -0.5h-3h-120h-120
q-7 0 -11.5 5t-4.5 12q0 2 0.5 4t1.5 4zM973 127q2 -2 2.5 -4t1 -4.5t0.5 -4.5l-25 -146q-2 -11 -9.5 -18.5t-17.5 -7.5h-805q-11 0 -18 7.5t-9 18.5l-25 146q-1 5 3 13q5 -14 16 -25q16 -18 40 -26q8 -3 17 -5t17 -2h723q15 0 30 5q8 3 15.5 7t14.5 9t12 11q4 4 7 8t5 9z
M685 595l-46 82l-45 -82l-47 -85h92h92zM564 437h222q3 0 6 -1.5t5.5 -3.5t3.5 -5.5t1 -6.5v-221q0 -7 -4.5 -12t-11.5 -5h-222q-7 0 -11.5 5t-4.5 12v221q0 3 1 6.5t3.5 5.5t5.5 3.5t6 1.5zM769 403h-188v-188h188v188zM406 435q-29 29 -69.5 29t-69.5 -29t-29 -70t29 -70
t69.5 -29t69.5 29q9 9 15.5 20t10 24t3.5 26q0 41 -29 70z" />
    <glyph glyph-name="uni3439" unicode="&#x3439;" horiz-adv-x="1000" 
d="M79 -120h436v873h-436v-873zM348 645h109v-109h-109v109zM348 425h109v-109h-109v109zM348 208h109v-109h-109v109zM133 645h109v-109h-109v109zM133 425h109v-109h-109v109zM133 208h109v-109h-109v109zM570 476h382v-50h-382v50zM570 -120h109v191h163v-191h110v486
h-382v-486z" />
    <glyph glyph-name="uni343A" unicode="&#x343a;" horiz-adv-x="1000" 
d="M516 -123h-287v653h-1l1 1v25h15l128 209l128 -209h16v-183h288v-496h-288zM333 504h-52v-104h52v104zM333 347h-52v-104h52v104zM333 190h-52v-104h52v104zM464 504h-52v-104h52v104zM464 347h-52v-104h52v104zM464 190h-52v-104h52v104zM621 347h-52v-104h52v104z
M621 190h-52v-104h52v104zM752 347h-53v-104h53v104zM752 190h-53v-104h53v104z" />
    <glyph glyph-name="uni343B" unicode="&#x343b;" horiz-adv-x="1000" 
d="M474 755l-372 -118l374 -138l372 136zM66 128l373 -198v510l-373 137v-449zM509 437v-507l372 198v446z" />
    <glyph glyph-name="uni343C" unicode="&#x343c;" horiz-adv-x="1000" 
d="M944 431q-51 -190 -320 -453q-65 -64 -114 -105q-7 6 -20.5 17.5t-52.5 48.5t-76 74.5t-84 91.5t-84.5 105t-69.5 110.5t-46 110.5q-6 19 -8.5 38.5t-2.5 38.5q0 106 69.5 180.5t167.5 74.5q37 0 70 -12t59 -33t46 -50t32 -64h1q24 71 79 115t128 44q98 0 167.5 -74.5
t69.5 -180.5q0 -19 -2.5 -38.5t-8.5 -38.5zM701 439h-95v95h-191v-95h-95v-191h95v-96h191v96h95v191z" />
    <glyph glyph-name="uni343D" unicode="&#x343d;" horiz-adv-x="1000" 
d="M190 40v47h126l8 11h43l6 -11h121v-49h-45v17h-216v-15h-43zM314 -18l26 -7l58 21h-137q-7 -4 -12.5 -6.5t-32.5 -2.5h-26v31h28q8 0 12 2l4 4q2 2 5 4l4 5h48l-5 -6h204v-33l-100 -35l25 -7q7 -2 15.5 -3t17.5 -1h47v-31h-47q-30 0 -49 6l-56 16l-59 -17q-5 -2 -19 -3.5
t-21 -1.5h-54v31h48q18 0 32 4l29 7l-66 23h81zM194 -94h296v-48q0 -22 -8.5 -30t-33.5 -8h-254v86zM445 -124h-206v-26h192h5l4 2q2 0 3 1q2 3 2 9v14zM671 95v-242q0 -11 -3 -23t-33 -12h-34v32h25q3 0 4 1l1 8v41h-45v-42q0 -2 -0.5 -4.5t-0.5 -4.5t-0.5 -4t-0.5 -4
q-1 -4 -3 -8t-6 -8q-7 -9 -30 -9h-10v33h5q1 0 2 0.5t2 1.5v3q0 1 0.5 3t0.5 4v234h126zM586 13h45v49h-45v-49zM586 -67h45v48h-45v-48zM791 64h-64v-98h113v-28l-36 -65l9 -15q4 -5 6 -6l6 -1l8 -1h7v-31h-12q-23 0 -28.5 3t-8.5 8l-6 8l-9 -11q-3 -4 -8 -6q-2 -1 -7 -1.5
t-13 -0.5h-12v30h5q7 0 12 11l6 10l-29 48h42l8 -15l16 32h-69v-118h-42v279h148v-82q0 -10 -1 -16.5t-8 -12t-14 -6.5q-3 0 -8.5 -0.5t-13.5 -0.5h-48v32h43q4 0 6 2.5t2 9.5v42zM774 299q4 -10 6 -25.5t2 -31.5q0 -8 -0.5 -15.5t-2.5 -14.5q-2 -14 -7 -21q-1 -2 -6 -4.5
t-12 -5.5q-16 -5 -39 -9.5t-51 -9t-56.5 -8t-54.5 -5.5t-45 -2q-29 0 -69 4t-77.5 10t-66.5 12.5t-35 11.5t-10 32t2 70q4 24 21 37q8 6 17.5 11.5t19.5 9.5q22 7 45 13t40 17q13 8 20 15q2 2 4 4.5t3.5 5t3.5 4.5l4 15v7v9l-58 9q-12 8 -21 24q-8 14 -14.5 38.5t-6.5 63.5
v9v9q0 5 0.5 10t0.5 10t1 10v10q1 5 1 10q3 37 16 70t39 59.5t70 38.5q25 9 51 9q7 1 14 1h3h4h3h4q32 0 58.5 -13t45.5 -35q10 -11 18 -23t14 -26q13 -27 21 -54.5t11 -53.5t2 -44q-1 -28 -8 -50t-15 -38l-2 -6l-4 -6q-1 -3 -2.5 -5.5t-3.5 -5.5t-3.5 -5.5t-3.5 -4.5
l-66 -11q-2 -18 7.5 -35.5t41.5 -31.5q16 -6 36 -11t38 -12t32.5 -17.5t19.5 -28.5zM774 299z" />
    <glyph glyph-name="uni343E" unicode="&#x343e;" horiz-adv-x="1000" 
d="M500 800q136 0 251 -67t182 -182t67 -251t-67 -251t-182 -182t-251 -67t-251 67t-182 182t-67 251t67 251t182 182t251 67zM500 -106q110 0 204 54t148 148t54 204t-54 204t-148 148t-204 54t-204 -54t-148 -148t-54 -204t54 -204t148 -148t204 -54zM206 344l250 250
q18 18 44 18t44 -18t18 -44t-18 -44l-143 -144h349q17 0 31.5 -8t22.5 -22.5t8 -31.5q0 -26 -18 -44t-44 -18h-349l143 -144q18 -18 18 -44t-18 -44.5t-44 -18.5t-44 19l-250 250q-9 9 -14 20.5t-5 23.5t5 23.5t14 20.5z" />
    <glyph glyph-name="uni343F" unicode="&#x343f;" horiz-adv-x="1000" 
d="M500 800q-136 0 -251 -67t-182 -182t-67 -251t67 -251t182 -182t251 -67t251 67t182 182t67 251t-67 251t-182 182t-251 67zM500 -106q-110 0 -204 54t-148 148t-54 204t54 204t148 148t204 54t204 -54t148 -148t54 -204t-54 -204t-148 -148t-204 -54zM794 344l-250 250
q-18 18 -44 18t-44 -18t-18 -44t18 -44l143 -144h-349q-17 0 -31.5 -8t-22.5 -22.5t-8 -31.5q0 -26 18 -44t44 -18h349l-143 -144q-18 -18 -18 -44t18 -44.5t44 -18.5t44 19l250 250q18 18 18 44t-18 44z" />
    <glyph glyph-name="uni3440" unicode="&#x3440;" horiz-adv-x="1000" 
d="M673 350q13 0 25.5 2.5t24 7.5t22 12t19.5 16l15 14l36 36l42 42q21 21 35 36l15 15q5 4 6.5 10.5t0 13.5t-6.5 11q-3 3 -6.5 5t-7.5 2.5t-7.5 0t-7.5 -2.5t-7 -5l-143 -142q-22 -23 -55 -23q-10 0 -20 2.5t-19 7.5t-16 13q-23 22 -23 55t23 56l142 142q8 8 8 18.5
t-7.5 17.5t-18 7t-17.5 -7l-143 -143q-38 -38 -38 -91t38 -91t91 -38zM655 461q5 -5 11.5 -6.5t13 0t11.5 6.5l143 143q5 5 6.5 11.5t0 13t-6.5 11.5q-8 7 -18.5 7t-17.5 -7l-143 -143q-7 -8 -7 -18.5t7 -17.5zM133 17q-17 -16 -17 -39t16.5 -39.5t39.5 -16.5t39 17l235 234
l-78 79zM902 17l-688 688q-7 7 -15 11t-16.5 5t-17 0t-16 -5t-14.5 -11q-8 -8 -12 -19t-4 -22v-84q0 -26 18 -44l344 -344q12 -13 28.5 -17t32.5 0t28 17l253 -253q17 -17 40 -17t39 16.5t16 39.5t-16 39z" />
    <glyph glyph-name="uni3441" unicode="&#x3441;" horiz-adv-x="1000" 
d="M140.5 652q-26.5 0 -45 -18.5t-18.5 -45t18.5 -44.5t44.5 -18q18 0 32.5 8t23 22.5t8.5 32.5q0 26 -18.5 44.5t-45 18.5zM925 655h-623q-11 0 -19 -7.5t-8 -18.5v-72q0 -7 3.5 -13t9.5 -9.5t14 -3.5h623q10 0 18 8t8 18v72q0 7 -3.5 13t-9.5 9.5t-13 3.5zM925 380h-623
q-11 0 -19 -7.5t-8 -18.5v-71q0 -11 8 -18.5t19 -7.5h623q10 0 18 7.5t8 18.5v71q0 11 -8 18.5t-18 7.5zM925 105h-623q-11 0 -19 -7.5t-8 -18.5v-71q0 -6 2.5 -10.5t6 -8t8 -5.5t10.5 -2h623q10 0 18 7.5t8 18.5v71q0 8 -3.5 13.5t-9.5 9t-13 3.5zM140 377
q-17 0 -31.5 -8.5t-23 -23t-8.5 -31.5t8.5 -31.5t23 -23t31.5 -8.5q27 0 45.5 18.5t18.5 44.5t-18.5 44.5t-45.5 18.5zM140 102q-26 0 -44.5 -18.5t-18.5 -44.5t18.5 -44.5t45 -18.5t45 18.5t18.5 44.5q0 17 -8.5 31.5t-23 23t-32.5 8.5z" />
    <glyph glyph-name="uni3442" unicode="&#x3442;" horiz-adv-x="1000" 
d="M851 -111v1q1 0 2 1q0 1 1 2q1 2 2 4.5t2 4.5l93 360q0 20 -3.5 32t-12.5 16.5t-16 5.5t-22 1h-55v109q0 19 -5.5 31.5t-16 17t-17 5.5t-15.5 1h-437q-24 0 -28 -22q-5 -22 16 -31q5 -2 12 -2h437v-109h-547q-8 0 -14 -1t-17 -5.5t-17 -17t-6 -31.5l-54 -170v440h184
q12 0 20 8.5t8 20.5q0 6 -2 11.5t-6 9t-9 6t-11 2.5h-211q-8 0 -14.5 -4t-10 -10.5t-3.5 -14.5v-651q0 -5 1 -10v-1l1 -1v0l2 -4v0v-2h1l1 -1v0l1 -1v0q0 -1 1 -1v-1h1v-1h1v-1h1l1 -1h1q0 -1 1 -1q1 -1 2 -1.5t2 -0.5l2 -1h1h2q0 -1 1 -1v0h1h1h2h725h2l2 1q3 0 5 1v0
q1 0 2 1q1 0 2 1q1 0 2 1v1h2q0 1 0.5 1t0.5 1h1zM241 262h656l-108 -324h-656z" />
    <glyph glyph-name="uni3443" unicode="&#x3443;" horiz-adv-x="1000" 
d="M852 619h-643q-49 0 -83 -39q-29 -34 -29 -73v-385q0 -29 14 -53t38 -38t53 -14h658q21 0 40.5 8t33.5 22t22 33.5t8 41.5v388q0 43 -34 76t-78 33zM209 584h643q30 0 53.5 -22.5t23.5 -51.5v-42h-797v39q0 26 22 51.5t55 25.5zM860 52h-658q-29 0 -49.5 20.5t-20.5 49.5
v263h797v-263q0 -10 -2.5 -19t-7 -16.5t-11 -14t-14 -11t-16.5 -7t-18 -2.5zM395 136l-68 183h-30l83 -213h30l83 213h-31zM522 319h29v-213h-29v213zM742 306.5q-10 7.5 -23 10.5q-7 1 -14 1.5t-14 0.5h-89v-213h28v85h54q40 0 60 16.5t20 49.5q0 18 -6 30t-16 19.5z
M732 239.5q-3 -7.5 -9 -12.5t-16 -8q-4 -1 -10 -1.5t-13 -0.5h-54v77h56q10 0 19 -1.5t16 -5.5l3 -3q2 -2 4 -4.5t3 -4.5q4 -8 4 -19q0 -9 -3 -16.5z" />
    <glyph glyph-name="uni3444" unicode="&#x3444;" horiz-adv-x="1000" 
d="M143 193l313 -312q18 -18 44 -18t44 18l313 312q18 19 18 44.5t-18 44.5q-9 9 -21 13.5t-23.5 4.5t-23.5 -4.5t-21 -13.5l-206 -206v599q0 17 -8 31.5t-22.5 23t-31.5 8.5q-26 0 -44 -18.5t-18 -44.5v-599l-206 206q-19 18 -44.5 18t-44 -18.5t-18.5 -44t18 -44.5z" />
    <glyph glyph-name="uni3445" unicode="&#x3445;" 
d="M418 110q-17 -30 -16 -56t14.5 -46t38.5 -35q35 -22 73.5 -14t63.5 51q30 53 138 325t95 279.5t-194.5 -222t-212.5 -282.5zM512 490q32 0 64 -6q35 44 70 87q-65 19 -134 19q-103 0 -196 -42t-159.5 -113.5t-105.5 -171.5t-39 -211v-12q0 -5 0.5 -10.5t0.5 -11t0.5 -11
t0.5 -11.5q2 -20 18 -33.5t36.5 -11.5t34 18t11.5 36q-2 23 -2 47q0 121 53 221.5t145 158.5t202 58zM873 427q-19 -50 -42 -108q81 -117 81 -267q0 -24 -2 -48q-1 -8 1 -15.5t6 -14t9.5 -12t13 -8.5t15.5 -4h3h2q19 0 33.5 13t15.5 32q3 28 3 57q0 109 -36.5 205.5
t-102.5 169.5z" />
    <glyph glyph-name="uni3446" unicode="&#x3446;" 
d="M915 289l-5 7q-3 5 -12.5 16.5t-19 20.5t-23.5 16t-27 7t-27 -7t-25.5 -17.5t-21 -20.5t-14.5 -17l-5 -7q-2 2 -5 7t-13.5 17t-20.5 21.5t-24.5 16.5t-28.5 7q-24 -1 -44 -18.5t-33 -44.5v-265q-2 -27 -4.5 -40.5t-7.5 -27.5q-8 -25 -30 -45q-22 -19 -45 -27
q-19 -6 -51 -6q-7 0 -13.5 0.5t-13 1.5t-12.5 2.5t-12 3.5q-11 5 -20.5 11t-17.5 14q-15 16 -23.5 38.5t-8.5 58.5v25h73q0 -63 8 -75q13 -17 40 -18q5 -1 9.5 0t8 2t6.5 2.5t4 2.5h2q11 11 14 20l4 21q2 22 2 34v272q-2 2 -10.5 12.5t-14.5 17t-15.5 14.5t-19.5 12t-21 3
q-24 0 -48.5 -17.5t-36.5 -33.5l-13 -17q-2 3 -6 7.5t-15.5 16t-22 20.5t-24 16.5t-23.5 7.5q-6 0 -13 -2t-13.5 -6t-13 -9.5t-12.5 -11.5l-12 -10q-6 -6 -10.5 -11.5t-7.5 -9t-5 -6.5l-2 -2v20q0 13 5.5 51t16.5 73t36.5 79t60.5 77.5t94.5 60t133.5 33.5l52 73l50 -73
q60 -3 110.5 -19t84.5 -39t61 -54t43 -61t26.5 -64.5t14.5 -59.5t6 -50.5t1.5 -34t-0.5 -12.5z" />
    <glyph glyph-name="uni3447" unicode="&#x3447;" 
d="M891 501l-61 -36q-13 -7 -27.5 -3t-22 16.5t-3.5 27t17 22.5l61 35q-45 64 -109 108l-35 -61q-7 -13 -21.5 -16.5t-27.5 3.5t-17 21.5t4 27.5l35 61q-35 16 -72 26t-76 14v-71q0 -9 -5 -17.5t-13 -13.5t-18 -5q-15 0 -25.5 10.5t-10.5 25.5v71q-39 -4 -76 -14t-72 -26
l35 -61q8 -13 4 -27.5t-17 -21.5q-6 -4 -13.5 -4.5t-14 1t-12 6t-9.5 10.5l-35 61q-64 -44 -109 -108l61 -35q13 -8 17 -22.5t-3.5 -27t-22 -16.5t-27.5 3l-61 36q-41 -88 -41 -184q0 -118 58 -217.5t157.5 -157t216.5 -57.5q88 0 168 34t137.5 92t92 138t34.5 168
q0 48 -10.5 94.5t-30.5 89.5zM749.5 172.5q-29.5 -50.5 -76 -85t-99 -49t-110 -7.5t-108.5 36.5t-85.5 75.5t-48.5 99t-7.5 110.5t36 108t76 85.5t99 49t110 7t108.5 -36t85.5 -75.5t48.5 -99t7.5 -110.5t-36 -108.5zM652 502l-103 -173q-4 -6 -9.5 -10.5t-12 -6.5t-14 -1
t-13.5 5q-13 7 -17 21.5t4 27.5l103 173q-21 9 -44 13.5t-46 4.5q-65 0 -120.5 -32.5t-87.5 -87.5t-32 -120q0 -100 70.5 -170t169.5 -70t169.5 70t70.5 170q0 28 -6.5 54.5t-18 50t-27.5 44t-36 37.5z" />
    <glyph glyph-name="uni3448" unicode="&#x3448;" 
d="M842 -115h-652q-37 0 -60 29t-18 70l75 506q3 26 26 44.5t52 18.5h42q2 38 13 70t30 55.5t44.5 40t56 25t63.5 8.5q87 0 145.5 -53t61.5 -146h46q19 0 36 -8.5t28.5 -23t13.5 -31.5l75 -506q5 -41 -18 -70t-60 -29zM277 408q0 -21 15 -36t37 -15q6 0 13 1.5t12.5 5t10 8
t8 10.5t5.5 12.5t2 13.5q0 8 -2.5 16t-7.5 14t-11.5 11t-14 7.5t-15.5 2.5q-14 0 -26 -7t-19 -18.5t-7 -25.5zM514.5 714q-73.5 0 -122 -41.5t-52.5 -119.5h349q-4 78 -52.5 119.5t-122 41.5zM706 459q-10 0 -19.5 -4t-16.5 -11t-11 -16.5t-4 -19.5q0 -21 15 -36t36 -15
t36 15t15 36q0 10 -4 19.5t-11 16.5t-16.5 11t-19.5 4z" />
    <glyph glyph-name="uni3449" unicode="&#x3449;" 
d="M829 -117h-271v279h334v-216q0 -7 -1.5 -14t-4.5 -13.5t-7.5 -12t-10 -10t-12 -7.5t-13.5 -4.5t-14 -1.5zM558 489q-31 8 -39 16l-1 1q-1 -1 -2 -1q-12 -12 -27 -16v-258h-351v222q0 26 18.5 44.5t44.5 18.5h147q-26 15 -45 33q-44 41 -51 92.5t27 83.5q10 9 22 15t25 9
t27 3q64 0 116 -49q30 -28 49 -67q19 40 49 67q17 16 36.5 27t39.5 16.5t40 5.5q45 0 73 -27q35 -32 28 -83.5t-51 -92.5q-10 -9 -21.5 -17t-23.5 -16h141q13 0 24.5 -5t20 -13.5t13.5 -20t5 -24.5v-222h-334v258zM425 656q-34 31 -72 31q-20 0 -29 -9l-4 -4q-1 -1 -2.5 -6
t-1.5 -11q0 -32 31 -61q22 -20 53 -33.5t56 -13.5q6 0 10 1t5 1.5t2 0.5q5 11 -8 45t-40 59zM564 551l2 -1q2 0 5.5 -0.5t7.5 -0.5q26 0 57 13.5t53 33.5q31 29 31 61q0 14 -8 21q-10 9 -29 9q-38 0 -72 -31q-27 -25 -39.5 -59t-7.5 -46zM489 -117h-288q-26 0 -44.5 18.5
t-18.5 44.5v216h351v-279z" />
    <glyph glyph-name="uni344A" unicode="&#x344a;" 
d="M724 84q1 4 5 16t5 17.5t4 26t1.5 40t-1.5 59.5q58 57 100 129.5t62 130t31 118.5t12.5 85.5t1.5 40.5h1h-1v0q-16 0 -40.5 -1.5t-85.5 -12.5t-118.5 -31t-130 -62.5t-129.5 -99.5q-40 0 -59.5 1.5t-40 -1.5t-26 -4t-17.5 -5t-16 -5q-41 -12 -120 -97q-65 -70 -73 -104
q-5 -16 0 -28t17 -17.5t21 -8t19 -3.5q5 0 26 1t41.5 1.5t38.5 -0.5t21 -6q2 -1 4.5 -4t7 -13t5.5 -23q0 -23 10 -50t26 -45v-1v0h1q12 -11 29 -19t34 -12.5t32 -5.5q13 0 23 -4t13 -8l4 -4q6 -4 6.5 -31t-1 -59t-1.5 -37q1 -10 3.5 -19t8 -21t17.5 -17t28 -1
q37 10 113.5 83t87.5 111zM582 384q-12 11 -19 25.5t-9 29.5t0 30.5t9 30t19 25.5q14 14 33 21.5t38 7.5t37.5 -7.5t32.5 -21.5q19 -19 26 -45t0 -51.5t-26 -44.5q-14 -15 -32.5 -22.5t-37.5 -7.5t-38 7.5t-33 22.5zM350 49q-42 6 -70 34q-8 9 -15 18.5t-12 23t-7 28.5
q-3 20 -13.5 30t-24.5 8q-13 -2 -44.5 -36.5t-34.5 -51.5q-1 -7 3.5 -11t11.5 -5t16 -3.5t14 -7.5q20 -17 -14 -85q-12 -23 -4 -32q9 -8 33 4q67 34 85 14q3 -4 5.5 -9.5t3 -10.5t2 -10t3 -9t4.5 -5.5t9 -0.5q16 2 50.5 33.5t36.5 45.5q2 13 -8 23.5t-30 14.5z" />
    <glyph glyph-name="uni344B" unicode="&#x344b;" 
d="M514 -86l-156 263q-170 -65 -228 -105q-26 -17 -47.5 -58t-29.5 -69t-8 -32h940q-1 4 -2.5 12t-8 30t-15.5 41.5t-25 41t-35 34.5q-59 40 -228 105zM514 125l-52 -53l26 -52l-78 -106h209l-79 106l26 52zM520 728q65 0 111.5 -20.5t69 -46t34.5 -70t13.5 -70t1.5 -68.5
q0 -30 -10.5 -67t-31 -74.5t-47.5 -69t-64.5 -51.5t-76.5 -20q-49 0 -94 30t-73.5 74.5t-45.5 92t-17 85.5v36q0 13 2.5 38.5t6 41.5t11.5 39t19.5 38.5t29 32t40 26.5t53.5 16.5t68 6.5z" />
    <glyph glyph-name="uni344C" unicode="&#x344c;" 
d="M754 349q7 7 9 17q3 21 -17 31l-194 98l34 214q3 21 -15 30q-17 8 -33 -8l-150 -148l-201 96q-8 4 -19 3.5t-18 -7.5v-1q-15 -15 -4 -36l96 -201l-149 -145q-16 -17 -8 -33q4 -9 12 -12.5t18 -1.5l216 33l100 -193q10 -19 32 -16q10 1 17 8q3 4 5 8t3 9l34 213l215 34
q10 1 17 8zM614 284l-63 -8l-9 -54l292 -328q45 12 67 34q5 5 9.5 10t8 10.5t7 11.5t6 11.5t5 10.5t4 9t3 7l2.5 5v2z" />
    <glyph glyph-name="uni344D" unicode="&#x344d;" 
d="M930 256l-441 441q-7 7 -21 13.5t-25 7.5l-238 22q-7 1 -16 -1t-17 -6.5t-13 -9.5l-54 -54q-8 -8 -13 -21.5t-4 -24.5l21 -239q3 -27 22 -46l440 -440q5 -6 12 -7.5t14 0t12 7.5l321 320q8 8 8 19t-8 19zM272 554q-17 -17 -41.5 -17t-41.5 17t-17 41.5t17 41.5
q11 12 26.5 16t30.5 -0.5t26 -15.5q5 -5 8.5 -10.5t5.5 -11.5t3 -12.5t0 -13t-3 -12.5t-5.5 -12t-8.5 -11z" />
    <glyph glyph-name="uni344E" unicode="&#x344e;" horiz-adv-x="1000" 
d="M515 753q-89 0 -170 -34.5t-139.5 -93t-93 -139.5t-34.5 -170t34.5 -169.5t93 -139t139.5 -93.5t170 -35t170 35t139.5 93.5t93 139t34.5 169.5q0 168 -111 292q-109 121 -268 142q-29 3 -58 3zM515 -56q-76 0 -145 29.5t-118.5 79.5t-79 119t-29.5 144q0 102 49.5 187.5
t135.5 135.5t187 50t187 -50t136 -135.5t50 -187t-50 -187.5t-136 -135.5t-187 -49.5zM652 89l22 12q-25 30 -48 65q-10 16 -20 32.5t-20 34.5l-32 -18q-65 92 -107 193l33 18q-7 11 -12 22l-12 23q-6 12 -11 24q-17 38 -30 76l-21 -12q-55 -32 -47 -79v-1q1 -3 1.5 -6
t1.5 -5.5t1.5 -5.5t1.5 -6v0q48 -186 189 -345q1 -1 1 -2l18 -18q35 -32 91 -2zM692 111q-25 31 -49 66q-20 31 -39 66l25 13q12 -3 44 -47.5t42 -84.5zM498 436q-19 34 -34 67q-18 39 -30 78l20 11q21 -16 44.5 -71.5t20.5 -73.5z" />
    <glyph glyph-name="uni344F" unicode="&#x344f;" 
d="M500 715q86 0 161.5 -32.5t131.5 -89t88.5 -132t32.5 -161.5t-32.5 -161t-88.5 -131.5t-131.5 -89t-161.5 -32.5t-161 32.5t-131.5 89t-89 131.5t-32.5 161t32.5 161.5t89 132t131.5 89t161 32.5zM743 112q5 14 8 31.5t5 37.5q-14 5 -27.5 10.5t-27.5 11.5q-1 -12 -3 -27
t-5 -34q-5 -30 -44 -30h-30q-40 -3 -37 34v135l76 2l35 -35l45 40q-39 35 -77.5 69t-76.5 66l-39 -30q5 -5 12.5 -11.5t17.5 -16.5q22 -19 31 -31l-236 -6q54 45 128 119h251v55h-211q-1 3 -2 9l-4 14q-5 16 -8.5 26t-4.5 16l-66 -7q2 -5 5 -15t8 -24q5 -15 6 -19h-232v-55
h180q-47 -52 -96 -91q-22 -22 -52 -35l29 -55q8 2 23.5 4t41.5 4h24q0 -75 -33 -108q-29 -35 -124 -65q2 -4 5 -8.5t8 -11.5q8 -11 13.5 -19t8.5 -14q194 60 182 231l73 2v-152q-2 -70 72 -67h65q71 -3 83 50z" />
    <glyph glyph-name="uni3450" unicode="&#x3450;" horiz-adv-x="1000" 
d="M517.5 658q86.5 0 135 -66.5t48.5 -162.5q58 0 58 1q0 38 -7.5 73.5t-21.5 67.5t-35 58t-47.5 45.5t-59.5 30t-70 10.5q-28 0 -54 -6t-48 -17.5t-42 -27.5t-35.5 -35.5t-28 -43t-21 -48.5t-13 -52.5t-4.5 -55.5h58q0 94 50.5 161.5t137 67.5zM786 429v-1v-3q0 -2 -0.5 -4
t-1.5 -4.5t-2 -4.5t-3 -4t-5 -4t-7 -2.5t-9 -0.5h-56q-1 -1 -3 -0.5t-7.5 1.5t-9.5 3.5t-7 8.5t-3 14h-314v-3q0 -2 -1.5 -6.5t-4.5 -8.5t-8.5 -6.5t-13.5 -2.5h-56q-13 0 -20 7t-8 14l-2 7q-2 0 -6 -0.5t-13.5 -3.5t-17 -8.5t-13.5 -17.5t-6 -28v-395v-4q0 -2 1.5 -8
t3.5 -12t6 -13t10.5 -12t16.5 -8.5t22 -3.5h538q1 0 3 0.5t8 1.5t11.5 3t12 6t11.5 10t8 15t3 20v400l-8 24q-17 33 -49 34zM530 146l-1 -115l-56 -1l-1 115q-17 0 -31 15.5t-19 31.5l-5 16q0 21 8.5 37t21 23.5t25 12t21.5 5.5l9 1q21 0 37.5 -8t25 -19t13.5 -22.5t7 -18.5
l1 -8q0 -17 -14 -33t-28 -24z" />
    <glyph glyph-name="uni3451" unicode="&#x3451;" 
d="M1000 123q0 -25 -8.5 -47t-24 -39.5t-36 -29.5t-44.5 -16l1 -1h-17h-4h-4h-660q-5 -1 -16 -1q-39 0 -73 15t-59.5 40.5t-40 59.5t-14.5 73t14.5 73t40 59.5t59.5 40.5t73 15h1q-1 8 -1 15v16q0 71 27 134t74 109.5t109.5 73.5t133.5 27t134 -27t110 -73.5t74 -109.5
t27 -134q0 -37 -8 -72.5t-22 -67.5q5 1 10.5 1.5t10.5 0.5q27 0 51.5 -10.5t42.5 -29t28.5 -43t10.5 -52.5zM650 242q20 0 26 4.5t-8 21.5q-14 18 -31 47t-35.5 59t-37.5 56t-37 38q-18 13 -26.5 14t-24.5 -12q-18 -15 -35 -38t-34.5 -49t-35 -51t-35.5 -44q-18 -18 -13 -32
t25 -14h16q9 0 19.5 -0.5t20.5 -0.5h17q14 -1 18 -9.5t4 -23.5q0 -17 -0.5 -30t-0.5 -25t-0.5 -25t-0.5 -30q0 -7 1.5 -15t5.5 -15t12 -11.5t21 -4.5h23q9 0 27 -1q24 0 27.5 12t3.5 38q0 23 0.5 41.5t0.5 50.5q0 23 4.5 35.5t19.5 12.5q11 0 31.5 0.5t31.5 0.5z" />
    <glyph glyph-name="uni3452" unicode="&#x3452;" horiz-adv-x="1000" 
d="M493 701q24 4 40 -14q16 -16 15 -44v-320v-320q0 -31 -12 -49q-4 -6 -10.5 -11t-14 -7t-14.5 -2q-23 1 -45 24q-144 143 -195 194l-3 3t-5 4t-4 1h-29h-28h-28h-28q-21 0 -36 13q-15 12 -19 31v227q3 18 17.5 31t32.5 13q10 1 59 1h58q3 -1 12 7q38 38 107 106.5t89 88.5
t41 23zM494 666l-5 -2q-3 -2 -5.5 -4t-4 -3t-4.5 -4l-1 -1l-2 -2l-1 -1l-1 -1l-1 -1l-1 -1l-1 -1l-1 -1l-1 -1l-1 -1l-1 -1l-1 -1l-1 -1l-1 -1l-1 -1l-1 -1l-1 -1l-1 -1l-1 -1l-1 -1l-1 -1l-1 -1l-1 -1l-1 -1l-1 -1l-1 -1l-1 -1l-1 -1l-1 -1l-1 -1l-1 -1l-1 -1l-1 -1l-1 -1
l-1 -1l-1 -1l-1 -1l-1 -1l-1 -1l-1 -1l-1 -1l-1 -1l-1 -1l-1 -1l-1 -1l-1 -1l-1 -1l-1 -1l-1 -1l-1 -1l-1 -1l-1 -1l-1 -1l-1 -1l-1 -1l-1 -1l-1 -1l-1 -1l-1 -1l-1 -1l-1 -1l-1 -1l-1 -1l-1 -1l-1 -1l-1 -1l-1 -1l-1 -1l-1 -1l-1 -1l-1 -1l-1 -1l-1 -1l-1 -1l-1 -1l-1 -1
l-1 -1l-1 -1l-1 -1l-1 -1l-1 -1l-1 -1l-1 -1l-1 -1l-1 -1l-1 -1l-1 -1l-1 -1l-1 -1l-1 -1l-1 -1l-1 -1l-1 -1l-1 -1l-1 -1l-1 -1l-1 -1l-1 -1l-1 -1l-1 -1l-1 -1l-1 -1l-1 -1l-1 -1l-1 -1l-1 -1l-1 -1l-1 -1l-1 -1l-1 -1l-1 -1l-1 -1l-1 -1l-1 -1l-1 -1l-1 -1l-1 -1l-1 -1
l-1 -1l-1 -1l-1 -1l-1 -1l-1 -1l-1 -1l-1 -1l-1 -1l-1 -1l-1 -1l-1 -1l-1 -1l-1 -1l-1 -1l-1 -1l-1 -1l-1 -1l-1 -1l-1 -1l-1 -1l-1 -1l-1 -1l-1 -1l-1 -1l-1 -1l-1 -1l-1 -1l-1 -1l-1 -1l-1 -1l-1 -1l-1 -1l-1 -1l-1 -1l-1 -1l-1 -1l-1 -1l-1 -1l-1 -1l-1 -1l-1 -1l-1 -1
l-1 -1l-1 -1l-1 -1l-1 -1l-1 -1l-1 -1l-1 -1l-1 -1l-1 -1l-1 -1l-1 -1l-1 -1l-1 -1l-1 -1l-1 -1l-1 -1h-1l-1 -1l-1 -1l-1 -1l-1 -1l-1 -1l-1 -1l-1 -1l-1 -1l-1 -1l-1 -1l-1 -1l-1 -1l-1 -1l-1 -1l-1 -1l-1 -1l-1 -1l-1 -1l-1 -1l-1 -1l-1 -1l-1 -1l-1 -1l-1 -1l-1 -1
l-1 -1l-1 -1l-1 -1l-1 -1l-1 -1l-1 -1l-1 -1l-1 -1l-1 -1l-1 -1l-1 -1l-1 -1l-1 -1q-7 -7 -7 -23v-194q0 -16 7 -23q42 -42 210 -208q16 -16 21 -18q3 -2 6 -3t8 1q5 3 8 15q1 6 2 36v621q0 16 -7 22q-4 4 -13 2zM119 435q-6 -5 -6 -15v-204q0 -5 1.5 -9t4.5 -6q4 -5 16 -5
h56h1h1h1h1h1h1h1h1h1h1h1h1h1h1h1h1h1h1h1h1h1h1h1h1h1h1h1h1h1h1q-2 6 -3 12t-1 13v194q0 13 4 24h-44h-43q-11 0 -15 -4zM742 633q2 1 4.5 1.5t4.5 0t4.5 -1t4.5 -1.5q59 -31 102 -80q77 -86 88 -203v-63q-9 -90 -57 -163q-52 -78 -134 -120q-12 -6 -21 2q-6 5 -6 13
t6 13q3 3 8 5.5t10.5 5.5t9.5 5q52 32 89 82.5t52 109.5q15 60 6.5 122.5t-39.5 115.5q-44 76 -120 118q-17 10 -20 15q-3 6 -0.5 13t8.5 10zM679 540q9 4 18 -1q78 -43 112 -126q30 -72 13 -150q-8 -35 -25.5 -67t-43.5 -57.5t-57 -42.5q-5 -2 -11 -1.5t-10 4.5
q-4 5 -4.5 11.5t3.5 11.5q2 2 17 12q56 35 83 95q33 74 9 152q-23 77 -91 120q-2 2 -7 4.5t-8.5 5.5t-5.5 7q-3 6 -0.5 12.5t8.5 9.5zM608 431q6 1 9 0.5t8 -1.5q24 -8 43 -26t29 -41q11 -28 8 -59q-4 -32 -25 -59t-52 -38q-15 -6 -22 -2q-7 3 -9.5 10t1.5 13q3 7 15 11
q26 8 42 31q11 14 14 31.5t-1 34.5q-3 14 -11 26.5t-19.5 21.5t-25.5 13q-3 1 -5 2t-4 2.5t-3.5 3.5t-2.5 5q-1 2 -1 5t1 5.5t2.5 4.5t3.5 4t5 2z" />
    <glyph glyph-name="uni3453" unicode="&#x3453;" 
d="M668 520q15 0 36 10t44 19.5t45 13t40 -11t29 -51.5t11 -108v-452q0 -29 -13 -54.5t-36 -44.5t-55 -30t-70 -11h-414q-28 0 -54.5 11t-47 30t-33 44.5t-12.5 54.5v452q2 70 14 106.5t31 50.5t41.5 11.5t44.5 -11.5t40.5 -19t29.5 -10h27q10 0 18.5 5t14.5 13t9 17t3 17
v278h-9q-13 0 -22 8t-9 19t9 19t22 8h9v17h-9q-13 0 -22 8t-9 19t9 19t22 8h9v8q0 2 0.5 4.5t0.5 4.5h-10q-13 0 -22 8t-9 19t9 19t22 8h18q10 26 38.5 37.5t88.5 11.5q46 0 70 -6.5t34.5 -20.5t12 -35t1.5 -50v-70q0 -30 -10.5 -42.5t-23.5 -20.5t-23 -18t-8 -35v-225
q0 -18 14.5 -35t31.5 -17h22zM628 -23q0 15 -12.5 26t-29.5 11h-160q-18 0 -30.5 -11t-12.5 -26v-2q0 -15 12.5 -26t30.5 -11h160q17 0 29.5 11t12.5 26v2zM509 68q35 0 66 13.5t54 36.5t36.5 54.5t13.5 66.5t-13.5 66t-36.5 54t-54 36.5t-66 13.5t-65.5 -13.5t-53.5 -36.5
t-36.5 -54t-13.5 -66t13.5 -66.5t36.5 -54.5t53.5 -36.5t65.5 -13.5zM509 357q24 0 45.5 -9.5t37.5 -25.5t25.5 -37.5t9.5 -45.5t-9.5 -45.5t-25.5 -37.5t-37.5 -25.5t-45.5 -9.5t-45.5 9.5t-37 25.5t-25 37.5t-9.5 45.5t9.5 45.5t25 37.5t37 25.5t45.5 9.5z" />
    <glyph glyph-name="uni3454" unicode="&#x3454;" 
d="M532 535l465 -467h-199v-331h-533l-1 331h-196zM1063 864v-133h-1063v133h1063z" />
    <glyph glyph-name="uni3455" unicode="&#x3455;" 
d="M268 431q-27 0 -34.5 14.5t10.5 37.5q19 24 44 58t52 70.5t52.5 71t45.5 59.5q18 23 34.5 24t35.5 -21q19 -23 43.5 -55.5t50.5 -68t51.5 -69.5t45.5 -59q22 -27 17 -45t-33 -17q-17 0 -44 -1t-45 -1q-20 -1 -24.5 -12.5t-4.5 -31.5v-49q0 -27 0.5 -55t0.5 -55v-50
q0 -10 -1.5 -21t-7 -20t-16 -15t-28.5 -6q-21 0 -38.5 -0.5t-41.5 -0.5q-33 0 -44.5 15.5t-11.5 49.5v39q0 23 -0.5 49t-0.5 52v47q0 30 -6 47.5t-27 16.5q-15 0 -36.5 1t-38.5 1zM939 -80q6 -24 -2.5 -46t-26.5 -38.5t-44 -26t-56 -9.5h-678q-36 0 -63.5 13t-44 32
t-22 41.5t1.5 40.5q6 14 12 29q5 13 12 29.5t15 33.5l38 92h114l-43 -126h644l-43 126h109q21 -51 38 -92q7 -18 14 -35t12.5 -30.5t9 -23t3.5 -10.5z" />
    <glyph glyph-name="uni3456" unicode="&#x3456;" horiz-adv-x="1000" 
d="M514 185q51 37 86 91.5t35 114.5q0 101 -61.5 173t-147.5 72q-43 0 -81.5 -19.5t-66.5 -52.5t-44.5 -78t-16.5 -95q0 -60 35 -114.5t85 -91.5q-47 -12 -90.5 -34t-83 -55.5t-63 -82t-23.5 -105.5q0 -12 8 -20t19.5 -8t19.5 8t8 20q0 44 20.5 83.5t52.5 66.5t72 46.5
t78 29t70.5 9.5t71 -9.5t78 -29t71.5 -46.5t52.5 -66.5t20.5 -83.5q0 -12 8 -20t19.5 -8t20 8t8.5 20q0 38 -11 73t-30.5 62.5t-44.5 51t-55 41t-59.5 29.5t-60.5 20zM426 202q-10 0 -28 9.5t-39.5 27.5t-41 40.5t-32.5 52.5t-13 59q0 78 45 133.5t108.5 55.5t108.5 -55.5
t45 -133.5q0 -36 -19.5 -73t-46 -61t-51 -39.5t-36.5 -15.5zM780 328q32 27 53 64t21 76q0 74 -44.5 126t-108.5 52q-7 0 -14.5 -1t-15 -2.5t-14.5 -4t-13.5 -5.5t-13 -7t-12 -8.5t-11.5 -9.5q22 -16 39 -36q13 10 26.5 15.5t28.5 5.5q41 0 70.5 -37t29.5 -88
q0 -42 -34.5 -79t-60.5 -45q-4 -15 -9.5 -29.5t-12.5 -28.5q10 1 17 1q28 0 61 -10t64 -28.5t52 -50t21 -68.5q0 -7 3.5 -13t9.5 -9.5t14 -3.5q11 0 18.5 7.5t7.5 18.5q0 72 -50 123.5t-122 74.5z" />
    <glyph glyph-name="uni3457" unicode="&#x3457;" 
d="M189 -94h462v-51q0 -20 -15 -37.5t-44 -17.5h-343q-26 0 -43 16t-17 39v51zM810 323q34 0 66 -4.5t54 -19.5t31.5 -43t0.5 -76q-10 -50 -29.5 -76t-45 -37.5t-55 -11.5t-60.5 2q-11 -18 -25 -32.5t-30 -28t-32.5 -28t-33.5 -32.5h-462q-22 31 -49 52t-50 48.5t-39 70.5
t-16 117v105q0 20 7 30t16 15q11 5 24 7h681q12 -2 23 -7q9 -5 16.5 -15t7.5 -30v-6zM246 459q-2 -15 -13 -22.5t-23.5 -7.5t-23 7.5t-10.5 22.5q0 35 3.5 57.5t6.5 42.5q5 29 17.5 49t26 36.5t24.5 32t14 36.5q4 30 5.5 47.5t5 26t10.5 10.5t23 2t23 -11.5t8 -29t-2 -37
t-6 -34.5q-2 -14 -9.5 -28.5t-17.5 -30t-20 -30.5t-18 -29q-9 -15 -14 -37.5t-10 -72.5zM435 459q-2 -15 -13 -22.5t-23.5 -7.5t-23 7.5t-10.5 22.5q0 35 3.5 57.5t7.5 42.5q5 29 17.5 49t25.5 36.5t24 32t14 36.5q4 30 6 47.5t5.5 26t10.5 10.5t23 2t22.5 -11.5t7.5 -29
t-1.5 -37t-5.5 -34.5q-3 -14 -10.5 -28.5t-17 -30t-20 -30.5t-18.5 -29q-9 -15 -14 -37.5t-10 -72.5zM625 459q-2 -15 -13 -22.5t-23.5 -7.5t-23 7.5t-10.5 22.5q0 35 3 57.5t7 42.5q5 29 17.5 49t26 36.5t24.5 32t14 36.5q4 30 5.5 47.5t5 26t10.5 10.5t23 2t23 -11.5
t8 -29t-2 -37t-6 -34.5q-3 -14 -10.5 -28.5t-17 -30t-19.5 -30.5t-18 -29q-5 -8 -8.5 -16.5t-6 -21t-4.5 -30t-5 -42.5z" />
    <glyph glyph-name="uni3458" unicode="&#x3458;" horiz-adv-x="1000" 
d="M852 -86h-672q-17 0 -32 8.5t-23.5 23t-8.5 32.5v671q0 27 19 45.5t45 18.5h672q26 0 45 -18.5t19 -45.5v-671q0 -18 -9 -32.5t-23.5 -23t-31.5 -8.5zM735 547h-438v-467h38v25h362v-24h38v466zM335 512h362v-372h-362v372zM367 198q119 72 180 167v-117q0 -47 -41 -47
q-24 0 -57 4q1 -4 2 -8.5t1.5 -8.5t1.5 -7.5t1.5 -7.5t1.5 -7q30 -1 58 -1q69 0 69 72v153h96v34h-96v72h-37v-72h-187v-34h163q-65 -94 -181 -159q16 -17 25 -33z" />
    <glyph glyph-name="uni3459" unicode="&#x3459;" 
d="M320 689q23 0 40 -16.5t17 -40.5v-776q0 -23 -17 -39.5t-40 -16.5h-132q-24 0 -40.5 16.5t-16.5 39.5v776q0 24 16.5 40.5t40.5 16.5h132zM339 264q0 8 -6 14t-14 6t-13.5 -6t-5.5 -14v-102q0 -8 5.5 -14t13.5 -6t14 6t6 14v102zM801 689q24 0 40.5 -18t16.5 -50v-776
q0 -15 -16.5 -30t-40.5 -15h-315q-24 0 -40.5 16.5t-16.5 39.5v776q0 24 16.5 40.5t40.5 16.5h315zM507 264q0 8 -5.5 14t-13.5 6t-14 -6t-6 -14v-102q0 -8 6 -14t14 -6t13.5 6t5.5 14v102zM754 529q0 17 -9 28t-23 11h-150q-14 0 -23 -11t-9 -28v-103q0 -17 9 -28.5
t23 -11.5h150q14 0 23 11.5t9 28.5v103z" />
    <glyph glyph-name="uni345A" unicode="&#x345a;" 
d="M297 437q-14 0 -21 5t-10 12q-4 8 -4 18v66q0 19 7.5 28.5t16.5 14.5q11 5 24 5h387q13 0 24 -5q9 -5 16.5 -14.5t7.5 -28.5v-66q0 -10 -4 -18q-3 -7 -9.5 -12t-20.5 -5h-414zM818 -121q0 -22 -8 -40q-7 -15 -21.5 -27t-41.5 -12h-486q-28 0 -42 12t-21 27q-8 18 -9 40
v374q0 33 12 47t22 24l71 66h433l57 -66q10 -10 22 -24t12 -47v-374zM662 137h-105v106h-107v-106h-105v-107h105v-105h107v105h105v107z" />
    <glyph glyph-name="uni345B" unicode="&#x345b;" 
d="M125 361h751v-127h-23q-20 0 -26 10.5t-10 23.5t-12.5 24t-32.5 13q-24 1 -43.5 -8.5t-37.5 -21.5t-35.5 -22.5t-37.5 -10.5t-30 9t-18.5 19.5t-19.5 19.5t-32 9t-42 -7t-41 -15.5t-40 -15.5t-39 -7q-20 0 -34 5t-28.5 11.5t-31 12.5t-41.5 8q-28 2 -53 -7.5t-43 -21.5
v99zM125 48h751v-125h-751v125zM765 234q17 1 26 -7t17.5 -19t18.5 -20t28 -9h21v-68h-751v78q13 12 36.5 25.5t53.5 13.5q22 0 35 -7t25 -15.5t27.5 -15.5t43.5 -7t50.5 6.5t42 15t36 15t31.5 6.5q24 0 33 -8t16.5 -17t18.5 -17t38 -8t48 8.5t38.5 19t33.5 19.5t33 11z
M876 424h-751v63q8 42 41 77t84 60.5t115.5 39.5t135.5 14q72 0 136.5 -14t114.5 -39.5t83 -60.5t41 -77v-63zM339 550q13 0 22 9t9 22t-9 22t-22 9t-22 -9t-9 -22t9 -22t22 -9zM526 612q14 0 22.5 9t8.5 22t-8.5 22t-22.5 9q-13 0 -21.5 -9t-8.5 -22t8.5 -22t21.5 -9z
M652 550q13 0 22 9t9 22t-9 22t-22 9t-22 -9t-9 -22t9 -22t22 -9z" />
    <glyph glyph-name="uni345C" unicode="&#x345c;" 
d="M688 486v-595q0 -17 -6.5 -33t-19.5 -29.5t-31.5 -21.5t-43.5 -8h-114q-51 0 -74.5 29t-23.5 68v590h313zM625 551h-188v106q0 17 2 27t7 17t13 13.5t19 16.5q32 29 51.5 43.5t35.5 19.5q23 8 35.5 6t18 -11t6 -23t0.5 -29v-186z" />
    <glyph glyph-name="uni345D" unicode="&#x345d;" horiz-adv-x="1000" 
d="M873 160l3 -4q3 -5 6.5 -9t2.5 -4l-120 345q38 40 38 85q0 34 -17 69t-47.5 58.5t-63.5 23.5q-49 0 -89.5 -49t-40.5 -102q0 -45 42 -87l-189 -297q-7 2 -14 2.5t-16.5 -0.5t-14.5 -1q-33 0 -58 -10l-77 208q3 5 7 12.5t8.5 17t8.5 19t6 19.5t2 17q0 53 -35.5 100.5
t-84.5 47.5q-48 0 -86 -47.5t-38 -100.5q0 -48 44 -88t87 -40q2 0 3.5 3.5t3.5 3.5l83 -217q-41 -39 -41 -112q0 -69 49 -117.5t118 -48.5t117.5 48.5t48.5 117.5q0 78 -59 128l191 301q13 -3 24 -3q14 0 29 4l87 -333q-2 -4 -4.5 -9.5t-5 -12t-4.5 -14t-4 -14.5t-3 -14.5
t-2 -13.5t-1 -11q0 -28 18 -56t46.5 -45.5t57.5 -17.5q41 0 73 46.5t32 93.5q0 41 -41 74.5t-80 33.5z" />
    <glyph glyph-name="uni345E" unicode="&#x345e;" horiz-adv-x="1000" 
d="M438 740q12 5 23.5 8t23.5 4.5t24 1.5t24 -1t24 -3.5t23.5 -6t22.5 -8.5t21 -12q40 -23 66.5 -62.5t33.5 -84.5q3 -18 3 -54v-98q11 0 20 0.5t20 0.5t20 -1q17 0 32 -10.5t21 -27.5q4 -9 3 -32v-138v-137v-138q1 -16 -7.5 -30.5t-22.5 -21.5q-13 -8 -32 -7h-269h-268
q-23 -1 -40 14q-20 18 -20 45v203v204v6v5v5v6v4l2 6q0 2 1 4.5t2 4.5q4 10 12 18t18 12.5t21 4.5q9 1 20 1t20 -0.5t20 -0.5v46v45q0 44 4 62q9 55 45.5 99.5t88.5 63.5zM422 689q-29 -18 -49.5 -46.5t-28.5 -61.5q-4 -18 -5 -72v-27v-29v-29q65 1 175 0.5t174 -0.5v60v60
q0 35 -14.5 67.5t-40.5 56.5q-22 21 -50 33t-58 14q-56 3 -103 -26zM239 385q-4 0 -7 -2.5t-5 -5t-3 -6.5t-1 -7v-134v-156v-133q-1 -8 5.5 -14.5t14.5 -6.5h267h266q16 1 21 4q4 3 6 8t2 11v421q0 12 -9 18q-4 3 -22 4h-515q-19 -1 -20 -1zM471 231q12 13 30 17t34 -2
q15 -6 25 -19.5t12 -29.5q0 -9 -2 -18t-6.5 -16.5t-10.5 -13.5v-49q-1 -12 -3 -18q-8 -23 -32 -26q-8 -1 -15.5 1.5t-13.5 7.5t-9 12q-3 4 -4 9.5t-1 9.5v10v9v7v6v7v7v6l-6 8q-6 7 -8 12q-4 8 -5 16.5t0.5 16.5t5 16t9.5 14z" />
    <glyph glyph-name="uni345F" unicode="&#x345f;" 
d="M147 419q-11 -13 -20 -31q-8 -15 -14 -36t-6 -48q0 -32 5.5 -56t12.5 -40q8 -18 19 -32q17 11 31 29q11 15 21 38.5t10 58.5q0 26 -9.5 48t-20.5 37q-13 18 -29 32zM178 455q19 -20 34 -45q13 -21 23.5 -48.5t10.5 -58.5q0 -42 -12 -71.5t-26 -49.5q-17 -23 -37 -37
q22 -17 47 -29q21 -11 47.5 -20t54.5 -9q30 0 56 7.5t46 17.5q23 11 41 26q-20 15 -37 39q-14 20 -26 51t-12 76q-1 32 11 58.5t26 46.5q17 23 38 41q-18 16 -41 28q-20 11 -46 19.5t-56 8.5q-29 0 -54 -8t-45 -18q-23 -11 -43 -25zM488 418q10 -12 19 -30q8 -15 14 -36.5
t6 -48.5q0 -32 -6 -56t-13 -40q-8 -19 -18 -32q-18 11 -31 29q-11 15 -21 38.5t-9 58.5q0 26 9 48t20 37q13 18 30 32zM678 254q-8 57 -15.5 98.5t-8.5 76.5q-1 17 -2 58.5t-2.5 88t-2.5 89t-1 61.5q1 40 23.5 58.5t60.5 16.5q35 -1 58.5 -17t23.5 -52v-72q0 -41 -0.5 -82.5
t-1 -79t-1.5 -60.5t-3.5 -43t-6 -41.5t-8 -45.5t-8.5 -54h-105zM685 206l20 -246q-12 -3 -23 -7q-9 -4 -18.5 -9.5t-14.5 -14.5t-2 -20.5t13.5 -22t28.5 -18t44 -7.5t45.5 7.5t30.5 18.5t13.5 23.5t-4.5 21.5q-8 9 -17.5 15t-18.5 9q-11 4 -21 5l18 245h-94z" />
    <glyph glyph-name="uni3460" unicode="&#x3460;" horiz-adv-x="1000" 
d="M629 753q8 2 17 0.5t16.5 -6t13.5 -11.5q16 -18 16 -48v-731q0 -8 -1 -15.5t-2.5 -15t-5.5 -14.5t-9 -13q-9 -11 -23 -15t-28 -1q-21 5 -45 30q-28 28 -71 70.5t-81 80.5l-71 71l-2 2q-1 1 -3 1.5t-3 -0.5h-128q-24 0 -40 14q-18 14 -22 37v257q4 24 22 38q16 13 40 13
h128q2 0 4.5 1t5.5 4t3 4l118 118q76 76 104 103q24 23 47 26zM630 714q-8 -3 -21 -15q-27 -27 -239 -238q-10 -11 -11 -12q-4 -8 -4 -23v-209v-4v-5v-4q0 -2 0.5 -4t0.5 -4t1 -4q1 -5 12 -16q28 -28 61 -60.5t60 -59.5l60 -60l60 -60q13 -13 24 -15q9 -2 14 9q5 10 5 39
v717v6q0 2 -0.5 5t-1.5 5.5t-2.5 5t-3.5 3.5q-5 6 -15 3zM204 451q-7 -6 -7 -17v-58v-60v-57v-59q0 -8 6 -14.5t14 -5.5h51h52q-2 4 -3 8.5t-1 9.5v9v221q0 15 4 28h-50h-49q-6 0 -10 -1t-7 -4zM760 447q2 1 4.5 1t5.5 -0.5t5 -1t5 -1.5q20 -7 37 -20t29.5 -30.5t18.5 -38.5
q7 -24 5 -49.5t-13 -47.5q-8 -18 -21.5 -32.5t-30.5 -24.5t-36 -14q-10 -3 -18 6.5t-4 19.5q3 9 18 14t28 14.5t22 23t13 29.5q4 14 3 29.5t-7 29.5q-17 41 -60 54q-2 1 -4.5 2t-5 3t-4.5 4t-3 5q-3 8 1 15.5t12 9.5z" />
    <glyph glyph-name="uni3461" unicode="&#x3461;" 
d="M357 796q12 2 18.5 -10t14.5 -26q3 -7 17.5 -26.5t31 -41.5t31 -41t17.5 -25q8 -13 9 -20.5t-12 -6.5q-6 1 -15.5 -1.5t-19 -6.5t-18 -9.5t-12.5 -9.5q-5 -6 -9.5 -5.5t-8.5 5.5t-7.5 12.5t-4.5 15.5q-2 10 -7 29t-11 40.5t-11 42.5t-8 35q-5 25 -3.5 36t8.5 13zM647 796
q7 -2 8.5 -13t-3.5 -36q-3 -14 -8 -35t-11 -42.5t-11 -40.5t-7 -29q-2 -8 -5 -15.5t-7 -12.5t-9 -5.5t-10 5.5q-3 4 -11.5 9.5t-18.5 9.5t-19 6.5t-15 1.5q-13 -1 -12 6.5t8 20.5q4 6 18 25t30.5 41t31 41.5t18.5 26.5q8 14 14.5 26t18.5 10zM478 397h46l1 141h9q5 0 10 0.5
t13 0.5q7 0 15 -5l16 -8q8 -5 15.5 -8.5t13.5 -2.5q6 0 13 11t14.5 27t14 33.5t12.5 30.5q5 13 10 31t8 35q4 19 6 40l36 -6q15 -3 31 -6t27 -5q10 -3 18 -5t15 -6.5t14.5 -11.5t17.5 -19t25 -35.5t30.5 -49.5t28.5 -49t18 -34q7 -14 2.5 -18t-9.5 -8q-6 -4 -20 -13.5
t-31 -20.5t-34 -20.5t-28 -13.5t-14.5 -2.5t-6.5 6.5q-2 3 -8 11.5t-13 18t-13 18t-8 10.5q-4 5 -10 0.5t-6 -20.5q0 -8 -0.5 -27.5t-0.5 -48.5v-63v-73q0 -103 -2.5 -165t-4.5 -97q-3 -40 -6 -58h-484q-3 29 -6 64q-2 30 -4.5 71t-1.5 89v79q0 41 -0.5 78t-1 65.5
t-0.5 42.5v45q0 17 -9 19q-5 1 -9.5 -3t-9.5 -11t-9.5 -15t-8.5 -14q-8 -11 -12.5 -16t-7.5 -6t-5 0l-8 3q-13 4 -30.5 13.5t-34 20t-29 19.5t-16.5 12q-8 5 -11.5 8t1.5 19q3 8 13.5 28t25 43.5t29.5 47t27 40.5q17 25 33.5 36t39.5 16q11 2 27.5 4.5t30.5 5.5q17 4 35 7
q4 -21 8 -40q4 -17 7.5 -34.5t7.5 -28.5q3 -11 10 -27.5t14.5 -32.5t15 -28.5t12.5 -15.5q10 -5 23 5t30 15q8 2 16 2.5t14 0.5q7 -1 13 -2v-140z" />
    <glyph glyph-name="uni3462" unicode="&#x3462;" horiz-adv-x="1000" 
d="M559 753q13 3 26 -2t22 -15q2 -3 4.5 -6.5t4.5 -7.5t3 -8t2 -8.5t1.5 -9t0.5 -8.5v-358v-359q0 -35 -6 -51q-8 -24 -29 -34q-22 -11 -47 2q-6 2 -11 5.5t-10 8t-9 8.5l-9 9l-9 9l-93 92l-108 109q-1 0 -4 3.5t-5.5 5t-5.5 0.5h-41h-40h-41q-20 0 -33 6q-29 12 -35 45v258
q2 10 7.5 19.5t13.5 16.5q17 14 41 14h41h47h40q2 0 4 1t3.5 2t3.5 3l3 3q42 43 121 121.5t101 99.5q23 23 46 26zM561 714q-8 -3 -22 -15q-79 -80 -238 -238q-10 -10 -11 -12q-3 -5 -4 -10t-1 -11v-73v-73v-73q0 -5 0.5 -9.5t2.5 -9.5t6 -8l130 -130q85 -85 117 -116
q13 -13 23 -15q3 -1 5.5 0t4.5 3l4 4q5 11 5 41v717q0 18 -7 26q-5 4 -15 2zM138 453q-11 -5 -10 -19v-78v-77v-77q-1 -12 6 -17q6 -5 17 -5h49h50q-4 13 -4 27v221q0 7 1 14t3 14h-48h-47q-13 0 -17 -3zM772 571q9 4 20 -2q81 -44 120 -128q35 -72 27 -152q-7 -71 -47 -131
q-39 -57 -99 -91q-10 -5 -18 -3q-7 2 -11 9.5t-2 14.5q2 8 12 14q70 39 104 113q18 37 22 79.5t-7 83.5q-12 49 -43 89.5t-75 65.5q-12 7 -14 15v6q0 2 0.5 5t2 5t3.5 4t5 3zM690 447q6 1 9.5 0.5t9.5 -2.5q17 -5 32 -15t27 -23.5t20 -29.5q7 -15 10.5 -31t3 -33t-5.5 -32
q-9 -31 -32 -55.5t-54 -34.5q-7 -3 -12 -3.5t-12 2.5q-4 3 -6.5 7.5t-2.5 9t2 9.5q3 7 22 14q25 9 41.5 31t18.5 49q1 11 -0.5 22t-6 21t-10.5 19t-14.5 16.5t-18.5 12.5q-3 2 -6.5 3.5t-7 2.5t-6.5 2.5t-6 3.5t-5 5q-3 6 -3 11.5t3.5 10.5t9.5 7z" />
    <glyph glyph-name="uni3463" unicode="&#x3463;" horiz-adv-x="1000" 
d="M0 675v-813h1000v813h-1000zM938 -75h-876v687h876v-687zM688 456q0 39 27 66.5t66 27.5t66.5 -27.5t27.5 -66.5t-27.5 -66.5t-66.5 -27.5t-66 27.5t-27 66.5zM875 -12h-750l187 500l250 -313l126 94z" />
    <glyph glyph-name="uni3464" unicode="&#x3464;" horiz-adv-x="1086" 
d="M314 418l445 2l-214 -538zM365 613l339 -3l60 -131l-440 3zM268 486l-268 112l144 107l172 -89zM0 533l254 -113l273 -534zM823 421l238 123l-501 -655zM818 487l-67 138l153 85l132 -111zM360 679l-58 15l-109 61l128 46h418l127 -53l-122 -59l-41 -10h-343z" />
    <glyph glyph-name="uni3465" unicode="&#x3465;" 
d="M934 199h-692q-11 0 -23 -6t-22.5 -18t-17 -28.5t-6.5 -37.5t5.5 -39t14.5 -32t22 -22t28 -8h691q-12 12 -21 27q-8 13 -14.5 31t-6.5 41q0 26 6.5 43t14.5 28q9 12 21 21zM934 -74q0 -17 -22 -17h-731q-34 0 -57 14t-37.5 38.5t-20.5 58.5t-6 73v580q0 77 41 111.5
t117 34.5h34h68h93q51 0 104.5 0.5t104.5 0.5h94h70h35q28 0 49 -11.5t35 -32t21.5 -48.5t7.5 -60v-405q-191 0 -344 1h-128q-64 0 -114.5 0.5t-83.5 0.5h-37q-21 0 -41 -12.5t-36 -34t-26 -50t-10 -59.5q0 -38 10.5 -68.5t27.5 -51.5t37.5 -32.5t40.5 -11.5h683
q8 0 14.5 -4.5t6.5 -14.5zM503 820v-387l77 108l76 -108v387h-153z" />
    <glyph glyph-name="uni3466" unicode="&#x3466;" 
d="M501 796q-184 0 -323 -120q-133 -114 -165 -285q-8 -45 -8 -90q0 -101 39.5 -193t105.5 -158t158 -105.5t193 -39.5q80 0 155.5 25t136.5 71t107 107t71 136.5t25 156.5q0 100 -39.5 192t-105.5 158t-158 105.5t-192 39.5zM500.5 -144q-90.5 0 -173 35t-142 95t-94.5 142
t-35 172.5t35 173t94.5 142t142 94.5t173.5 35q45 0 89 -9t83.5 -25.5t75.5 -41t66 -54.5t54.5 -66t41 -75.5t25.5 -83.5t9 -89q0 -91 -35 -173t-94.5 -142t-142 -95t-173 -35zM478.5 284.5q-1.5 10.5 -10 17t-18.5 4.5l-50 -8v107h51q10 0 17.5 7.5t7.5 18t-7.5 18
t-17.5 7.5h-51v84q0 11 -7.5 18.5t-18 7.5t-18 -7.5t-7.5 -18.5v-84h-33v51q0 10 -7.5 17.5t-18.5 7.5q-7 0 -12.5 -3.5t-9 -9.5t-3.5 -12v-61q0 -13 -6.5 -22t-13.5 -9q-11 0 -18 -7.5t-7 -17.5q0 -7 3 -13t9 -9.5t13 -3.5q40 0 61 41h43v-114l-104 -17q-11 -1 -17 -9.5
t-4 -19.5q1 -9 8 -15t17 -6h4l96 15v-172q0 -10 7.5 -17.5t18 -7.5t18 7.5t7.5 17.5v180l57 9q11 1 17 9.5t4.5 19zM738 405h-101v51h84q4 0 7 1t6 2.5t5.5 4t4 5t2.5 6t1 6.5q0 11 -7.5 18.5t-18.5 7.5h-84v67q0 11 -7.5 18.5t-18.5 7.5q-2 0 -4.5 -1t-5 -1.5t-4.5 -2
t-3 -3.5l-4 -4l-2 -4t-1.5 -4.5t-0.5 -5.5v-67h-68q-10 0 -17.5 -7.5t-7.5 -18t7.5 -18t17.5 -7.5h68v-51h-84q-6 0 -10.5 -2t-8 -5.5t-5.5 -8t-2 -9.5q0 -11 7.5 -18.5t18.5 -7.5h236q11 0 18.5 7.5t7.5 18t-7.5 18t-18.5 7.5zM738 287h-50v34q0 10 -7.5 17.5t-18 7.5
t-18 -7.5t-7.5 -17.5v-34h-135q-11 0 -18.5 -7.5t-7.5 -18.5q0 -6 3.5 -12t9.5 -9.5t13 -3.5h135v-121q0 -10 -1 -14.5t-5 -9.5t-14 -6.5t-27 -1.5q-5 0 -10 -2t-8 -5.5t-5 -8t-2 -9.5q0 -11 7 -18.5t18 -7.5q9 0 14.5 0.5t17 2t19 4.5t17.5 9t15.5 14.5t10 22t4.5 30.5v121
h50q11 0 18.5 7.5t7.5 17.5q0 6 -2 10.5t-5.5 8t-8.5 5.5t-10 2zM527 211q-3 0 -5.5 -0.5t-4.5 -1.5t-4 -3l-4 -2q-2 -2 -3 -4t-2 -4.5t-1.5 -5t-0.5 -5.5v-50q0 -11 7 -18.5t17.5 -7.5t18 7.5t7.5 18.5v50q0 7 -3 13t-9 9.5t-13 3.5z" />
    <glyph glyph-name="uni3467" unicode="&#x3467;" 
d="M660 787q48 0 64.5 -21t16.5 -65v-200q0 -37 -18 -60t-68 -23h-303q-48 0 -67 22t-19 70v191q0 42 18 64t67 22h309zM698 364q24 0 33.5 -12t9.5 -32v-81q0 -21 -11 -34.5t-39 -13.5h-375q-23 0 -36.5 9t-13.5 38v83q0 43 48 43h384zM786 138v325q0 27 15.5 39t38.5 12
h46q29 0 38.5 -18t9.5 -37v-37v-76v-98v-99v-80v-42q0 -60 -58 -60h-35v-88h-64v88h-546v-88h-63v88h-40q-53 0 -55 62v435q0 25 15 37.5t38 12.5h39q29 0 42.5 -15.5t14.5 -40.5v-22q0 -16 -0.5 -39.5t-0.5 -51.5v-57v-150h565z" />
    <glyph glyph-name="uni3468" unicode="&#x3468;" horiz-adv-x="1000" 
d="M874 540l-184 184q-8 8 -21 8h-262q-12 0 -21 -8.5t-9 -20.5v-112h-171q-12 0 -21 -8.5t-9 -21.5v-630q0 -12 9 -21t21 -9h447q6 0 11 2.5t10 6.5q9 9 9 21v112h171h4q2 0 4.5 1t4.5 2t4 2.5t3 2.5q9 9 9 21v447q0 6 -2 11.5t-7 9.5zM684 688l154 -154h-154v154zM653 -69
h-447v630h256q-8 -4 -8 -12v-171q0 -3 1 -5.5t3 -5.5q4 -4 10 -4h171q3 0 5 0.5t3.5 1.5t3 2.5t2.5 3.5v-440zM484 392v155l153 -155h-153zM854 72h-171v152h100q6 0 10 5q2 2 3 4.5t1 5.5q0 6 -4 10.5t-10 4.5h-100v56h102q6 0 10.5 4.5t4.5 10.5t-4.5 10.5t-10.5 4.5h-102
v38q0 10 -7 18h106q6 0 10 4q2 2 2 4l2 2v4q0 3 -1 6t-3 5q-4 4 -10 4h-133v-2l-159 160q-9 8 -22 8h-61v112h255q-7 -5 -7 -13v-171q0 -6 4 -10.5t10 -4.5h171q9 0 14 8v-440zM582 113h-306q-3 0 -5.5 -1.5t-4.5 -3.5q-4 -5 -4 -10.5t4 -10.5q2 -2 4.5 -3t5.5 -1h306
q6 0 10 4q3 2 4 5t1 6q0 5 -4.5 10t-10.5 5zM582 284h-306q-6 0 -10 -4.5t-4 -10.5t4 -10q5 -4 10 -4h306q6 0 10.5 4t4.5 10t-4.5 10.5t-10.5 4.5zM582 199h-306q-6 0 -10 -5t-4 -11t4 -10q5 -4 10 -4h306q6 0 10.5 4t4.5 10t-4.5 11t-10.5 5z" />
    <glyph glyph-name="uni3469" unicode="&#x3469;" 
d="M806 25q0 -25 -10 -46.5t-27.5 -38t-41 -26t-50.5 -9.5h-355q-27 0 -50.5 9.5t-41 26t-27.5 38t-10 46.5v670q0 25 10 47t27.5 38.5t41 26t50.5 9.5h355q27 0 50.5 -9.5t41 -26t27.5 -38.5t10 -47v-670zM725 647h-452v-573h452v573zM499 46q-21 0 -36.5 -15t-15.5 -37
q0 -21 15.5 -36.5t36.5 -15.5q22 0 37 15.5t15 36.5q0 22 -15 37t-37 15zM579 732q0 8 -5 12.5t-11 4.5h-127q-5 0 -10.5 -4.5t-5.5 -12.5t5 -12.5t11 -4.5h127q6 0 11 4.5t5 12.5z" />
    <glyph glyph-name="uni346A" unicode="&#x346a;" 
d="M521 538q33 41 70 74q32 27 72.5 49t84.5 19q62 -5 103.5 -29.5t66 -62t33.5 -85t6 -97.5t-17.5 -95.5t-36 -85t-47.5 -73t-52 -60.5q-40 -41 -83.5 -76.5t-83 -61t-72 -40.5t-50.5 -15q-20 -1 -51 14t-68 40.5t-78 60.5t-81 74q-26 25 -56 58t-56.5 72.5t-45.5 85.5
t-21 98t11 97.5t39 81.5t64 60.5t86 34.5q24 5 48 1.5t47 -12t44 -21.5t40 -27q44 -33 84 -79z" />
    <glyph glyph-name="uni346B" unicode="&#x346b;" horiz-adv-x="1090" 
d="M534 728q25 0 48 -10t39.5 -27.5t26.5 -40.5t10 -49q0 -38 -19.5 -68t-50.5 -46q-11 -31 -11 -64q0 -37 13.5 -73.5t37 -66t55 -48t67.5 -18.5q31 0 58.5 15t50 38.5t38 53t22.5 58.5q-27 13 -44 39t-17 58q0 22 8 41t22 33t33 22.5t40 8.5t40 -8.5t33 -22.5t22 -33
t8 -41q0 -32 -16.5 -57.5t-42.5 -38.5q-5 -50 -15 -102t-25 -103.5t-35 -99.5t-44 -88q-83 -31 -172 -47.5t-183 -16.5t-182.5 16.5t-172.5 47.5q-24 40 -44 88t-35 99.5t-25.5 103.5t-14.5 102q-26 13 -41.5 38.5t-15.5 57.5q0 22 8 41t21.5 33t32 22.5t39.5 8.5t40 -8.5
t33 -22.5t22 -33t8 -41q0 -33 -17 -59t-44 -38q7 -30 22.5 -59.5t38 -53.5t50 -39t58.5 -15q36 0 67.5 18.5t55.5 48t37.5 66.5t13.5 74q0 35 -14 68q-28 17 -45.5 46.5t-17.5 64.5q0 26 10 49t27 40.5t39.5 27.5t48.5 10z" />
    <glyph glyph-name="uni346C" unicode="&#x346c;" horiz-adv-x="1036" 
d="M425 8q-36 0 -47 21q-6 1 -16 0q-14 -21 -46 -21h-8h-10q-8 1 -14 1q-14 1 -23.5 5t-14 9.5t-7.5 12.5h-13q-9 -7 -24.5 -12t-40.5 -5q-39 0 -56 20q-5 5 -8 11q-25 3 -41 10q-19 2 -26.5 25.5t-10.5 63.5q-4 64 27.5 98t78.5 39q11 2 23.5 2.5t26.5 0.5q10 0 20 -0.5
t18 -1t13 -0.5h9q45 4 108 45t111 96.5t49 96.5q0 33 11 55t27 31t27.5 12t22.5 3q14 0 27 -3t22 -8l3 -1q62 -31 117 -31q15 0 30 2t29 6q34 10 62 10q46 0 69 -27q19 -22 14 -51q-4 -25 1 -54q30 -59 37 -156q1 -18 2 -21q8 -26 7 -74t-6 -68q-5 -22 -6.5 -37t-1.5 -34
q0 -12 -4.5 -21.5t-11.5 -15t-15.5 -8.5t-17.5 -3h-1h-39t-85.5 0.5t-56.5 0.5q-15 0 -27 6.5t-17 14t-7 14.5l-1 5l-1 53q-5 2 -13 3q-15 2 -38.5 -11.5t-41.5 -30.5q-11 -18 -35 -30.5t-43.5 -16t-39.5 -5.5q-8 -16 -21.5 -20.5t-42.5 -5.5h-6h-7zM414 50q6 -1 16 -1h7
q25 1 28 3v1l2 6l4 16h16q27 0 58.5 8.5t38.5 24.5l2 4l3 2q9 9 23 19.5t43 24.5t51 11l8 -2l8 -2q4 -1 7 -2t6 -2.5t5.5 -3.5t4.5 -4t4 -4.5t3 -4.5q1 -3 2 -6.5t1.5 -6.5t0 -5.5t-1.5 -5.5l1 -43q5 -3 11 -3q7 0 28.5 -0.5t47.5 -0.5h49q24 0 41 -1h16q7 0 7 7q0 38 10 80
q4 18 4.5 60.5t-2.5 52.5q-3 6 -4 13t-3 25q-1 18 -2 30t-4.5 33t-10 41t-16.5 38l-1 3l-1 3q-7 35 -1 71q1 10 -5 18q-20 23 -89 4q-34 -10 -70 -10q-65 0 -136 36l-2 1q-5 2 -13.5 4.5t-17.5 2.5q-6 0 -9.5 -0.5t-11 -3.5t-12.5 -9t-9.5 -18.5t-4.5 -29.5q-1 -31 -22 -69
t-55.5 -73t-74 -65t-81.5 -49.5t-74 -22.5h-2h-2q-2 0 -3.5 0.5t-8 0.5t-12.5 0.5t-15 0.5h-19q-26 0 -46 -2q-12 -1 -23 -5.5t-23 -14t-18 -28.5t-5 -45q3 -35 8 -51l5 -3v0q14 -7 42 -8l26 -1l-6 -22q0 -7 24 -7q12 0 20.5 1.5t12 2.5t5.5 3l3 9l14 1q6 1 13 1q15 0 26 -2
q6 -1 10.5 -4t7 -7t3.5 -6.5t3 -5.5v-1q3 -1 8.5 -1.5t14.5 -0.5q11 -1 16 -1q11 0 14 7l4 10l11 2q14 3 28 3q20 0 31 -8q6 -5 10 -13zM561 347q0 -4 -1 -7.5t-3 -6.5t-4.5 -5.5t-5.5 -4t-6.5 -2.5t-6.5 -1q-6 0 -11 2t-8.5 5.5t-5.5 8.5t-2 11q0 11 7.5 19t19 8t19.5 -8
t8 -19zM622 429q0 -3 -0.5 -5.5t-1.5 -5t-2.5 -5t-3.5 -3.5l-4 -4q-2 -1 -4.5 -2t-5 -1.5t-5.5 -0.5q-5 0 -10 2t-9 5.5t-6 8.5t-2 11q0 11 8 19t19 8q5 0 9 -1.5t7 -4t5.5 -6t4 -7.5t1.5 -8zM483 289q0 -11 -8 -19t-19 -8q-8 0 -14 3.5t-10 10t-4 13.5q0 12 8.5 20t19.5 8
q4 0 7.5 -1t6.5 -3t5.5 -4.5t4 -5.5t2.5 -6.5t1 -7.5z" />
    <glyph glyph-name="uni346D" unicode="&#x346d;" 
d="M661 302l65 242l-119 112l-98 -73l-100 75l-118 -115l73 -241l-350 -284l143 -145l124 107l109 -105l122 106l115 -107l116 109l113 -110l156 145zM413 596l95 -72l96 71l70 -66l-58 -212h-208l-64 213zM744 48l-117 -110l-114 106l-121 -105l-109 105l-124 -107l-75 78
l315 255h227l314 -255l-83 -77zM437 683q9 0 15.5 6.5t6.5 15.5t-6.5 15.5t-15.5 6.5t-15 -6.5t-6 -15.5t6 -15.5t15 -6.5zM505 683q6 0 11 3t8 8t3 11q0 4 -1 7t-3 6t-5 5t-6 3t-7 1q-6 0 -11 -3t-8 -8t-3 -11q0 -9 6.5 -15.5t15.5 -6.5zM573 683q9 0 15 6.5t6 15.5
t-6 15.5t-15 6.5t-15.5 -6.5t-6.5 -15.5t6.5 -15.5t15.5 -6.5z" />
    <glyph glyph-name="uni346E" unicode="&#x346e;" 
d="M314 428.5q0 -22.5 -16.5 -39t-38.5 -16.5q-15 0 -28 7.5t-20.5 20.5t-7.5 28q0 22 16.5 38.5t39 16.5t39 -16.5t16.5 -39zM314 428.5q0 -22.5 -16.5 -39t-38.5 -16.5q-15 0 -28 7.5t-20.5 20.5t-7.5 28q0 22 16.5 38.5t39 16.5t39 -16.5t16.5 -39zM799 429
q0 -9 -2.5 -17.5t-7.5 -15.5t-12 -12t-15.5 -8t-17.5 -3q-11 0 -21 4.5t-17.5 12t-12 17.5t-4.5 22q0 15 7.5 27.5t20 20t27.5 7.5q23 0 39 -16.5t16 -38.5zM861 -192h-728q-46 0 -79 32.5t-33 78.5v567q0 46 33 78.5t79 32.5h728q23 0 43.5 -9t35.5 -24t23.5 -35.5
t8.5 -42.5v-567q0 -46 -32.5 -78.5t-78.5 -32.5zM133 536q-21 0 -36 -14.5t-15 -35.5v-567q0 -21 15 -36t36 -15h728q6 0 11.5 1.5t10.5 4t9.5 6t8 8t6 9.5t4 10.5t1.5 11.5v567q0 21 -15 35.5t-36 14.5h-728zM770 435h-61v253q0 21 -14.5 36t-35.5 15h-324q-21 0 -36 -15
t-15 -36v-253h-60v253q0 23 8.5 43.5t23.5 35.5t35.5 23.5t43.5 8.5h324q46 0 78.5 -32.5t32.5 -78.5v-253z" />
    <glyph glyph-name="uni346F" unicode="&#x346f;" 
d="M492 430q29 1 47.5 8t32.5 12q13 5 30.5 22t28.5 39q5 11 12.5 14.5t15.5 2.5t16.5 -5t15.5 -7t21.5 -11t31.5 -17t35 -18t31 -15q23 -10 33 -22.5t16 -21.5q3 -5 12.5 -21.5t21 -39t23 -49t17.5 -51.5q6 -26 10.5 -50.5t1 -48t-18 -45.5t-45.5 -42q-32 -20 -78.5 -36.5
t-100 -29t-108 -19.5t-102.5 -7t-102 7t-105.5 18.5t-96 27t-72.5 31.5t-44.5 32t-24 33.5t-8.5 38t1 46.5q2 25 12.5 56t24 60t26 52t19.5 33q6 9 16.5 23.5t30.5 22.5q10 4 28.5 13.5t39.5 20t40.5 21t32.5 16.5q10 5 17.5 4.5t12.5 -3.5t8 -7t5 -7q3 -5 10 -17.5
t35 -34.5q14 -11 30 -16.5t30 -8.5q17 -4 34 -4zM493 809h8q6 0 15.5 -3t23.5 -10.5t32 -23.5q19 -17 36 -38.5t30 -41t20.5 -33.5t8.5 -17l3 -10q3 -8 3 -16t-4 -16t-15 -12q-12 -4 -21 -2t-14.5 7t-8 11.5t-1.5 11.5q2 14 0.5 24.5t-11.5 30.5q-11 24 -27 46t-27 34
q-10 11 -24.5 17t-27.5 6q-18 -1 -32 -9.5t-24 -17.5q-5 -5 -11.5 -14.5t-13.5 -20.5t-13.5 -21.5t-9.5 -16.5q-7 -13 -10.5 -22t-1.5 -31t-9 -29.5t-25 -5.5q-14 1 -25 13t-3 34q4 11 13.5 27t21.5 34t26 35.5t27 31.5q26 28 48 38t43 10z" />
    <glyph glyph-name="uni3470" unicode="&#x3470;" 
d="M666 448v132l-2 5q-6 16 -20.5 42t-37 58t-47.5 58.5t-55 42.5t-56 11q-79 -15 -79 -204v-145q-13 -7 -23 -16.5t-17.5 -21t-11.5 -25.5t-4 -28v-446q0 -43 30 -73t72 -30h205q42 0 72 30t30 73v446q0 29 -15.5 53.5t-40.5 37.5zM415 403h205q11 0 20.5 -4.5t16 -13
t8.5 -19.5h-296q4 16 16.5 26.5t29.5 10.5zM458 742q26 5 77 -55t75 -118v-110h-186v134q0 52 6.5 87.5t13.5 48t14 13.5zM666 -89q0 -13 -6 -24t-17 -17t-23 -6h-205q-19 0 -32.5 13.5t-13.5 33.5v418h297v-418z" />
    <glyph glyph-name="uni3471" unicode="&#x3471;" horiz-adv-x="1034" 
d="M895 510h2v116q0 27 -10.5 51.5t-28 42t-42 27.5t-51.5 10h-492q-28 0 -54 -10.5t-45.5 -28.5t-31 -42t-11.5 -50v-116h9q-84 -42 -113 -141q-9 -33 -9 -63v-197q0 -34 16 -64.5t43 -50.5q-1 -4 -1 -7v-74q0 -14 10 -24t23 -10h74q15 0 24 10q5 4 7.5 10t2.5 14v56h605
v-56q0 -14 10 -24t23 -10h74q15 0 24 10q5 4 7.5 10t2.5 14v74q0 4 -1 9q47 41 47 113v197q0 32 -11.5 69t-38.5 75.5t-64 59.5zM198 626q0 26 24 45t51 19h492q27 0 45.5 -18.5t18.5 -45.5v-95q-10 1 -21 1h-565q-23 0 -45 -4v98zM761 82h-495v-45h-116q-16 0 -31 10
t-24 27t-9 35v197q0 3 0.5 9.5t4 22.5t9 31.5t17.5 33t27.5 31t41 22.5t57.5 9h565q36 0 63.5 -19.5t42 -47.5t21.5 -52t7 -40v-197q0 -13 -3.5 -26t-10 -23.5t-17 -16.5t-23.5 -6h-127v45zM263 383q-48 0 -82 -34t-34 -81.5t34 -81.5t81.5 -34t81.5 34t34 82
q0 31 -15.5 57.5t-42 42t-57.5 15.5zM263 220q-20 0 -34 14t-14 34t14 34t33.5 14t33.5 -14t14 -34q0 -10 -3.5 -19t-10 -15t-15.5 -10t-18 -4zM764 383q-46 0 -79 -32.5t-33 -78.5q0 -18 6 -35t16 -31t24 -24t31 -15.5t35 -5.5q46 0 78.5 32.5t32.5 78.5q0 15 -4 29.5
t-11 26.5t-17.5 22.5t-22.5 17.5t-26.5 11t-29.5 4zM764 228q-12 0 -22 6t-16 16t-6 22t6 22t16 16t22 6q18 0 30.5 -13t12.5 -31q0 -9 -3.5 -17t-9 -14t-13.5 -9.5t-17 -3.5z" />
    <glyph glyph-name="uni3472" unicode="&#x3472;" 
d="M344 382h339q22 0 41 11t30 30t11 42v264q0 34 -24 58t-58 24h-339q-34 0 -58.5 -24t-24.5 -58v-264q0 -23 11 -42t30 -30t42 -11zM317 729q0 11 8 18.5t19 7.5h339q7 0 13 -3.5t9.5 -9.5t3.5 -13v-264q0 -11 -7.5 -19t-18.5 -8h-339q-11 0 -19 8t-8 19v264zM910 494h-54
q-36 0 -63.5 -26t-27.5 -59v-50q-4 1 -8.5 2t-9 1.5t-8.5 0.5h-451q-7 0 -13.5 -1t-13.5 -3v50q0 35 -23.5 60t-56.5 25h-54q-35 0 -62.5 -26t-27.5 -59v-454q0 -21 12 -43.5t33.5 -37.5t44.5 -15h59v-37h75v37h523v-37h74v37h52q34 0 56.5 30t22.5 66v454q0 17 -6 33
t-16.5 27.5t-25 18t-31.5 6.5zM261 281q0 11 8 18.5t19 7.5h451q11 0 18.5 -7.5t7.5 -18.5v-134q0 -11 -7.5 -18.5t-18.5 -7.5h-451q-8 0 -14 3.5t-9.5 9.5t-3.5 13v134zM933 -45q0 -14 -7.5 -27t-15.5 -13h-783q-10 0 -22 14.5t-12 25.5v454q0 6 5 13t13 11.5t16 4.5h54
q11 0 17.5 -9t6.5 -20v-344h83h451h82v82v134v128q0 10 11.5 19.5t23.5 9.5h54q4 0 8 -1.5t6.5 -4.5t4.5 -7t3 -8t1 -8v-454z" />
    <glyph glyph-name="uni3473" unicode="&#x3473;" 
d="M8 367v-172q0 -40 9.5 -75.5t25 -61.5t37.5 -48.5t43 -37.5t45 -27t40.5 -18.5t32.5 -11.5v-69h520v69q25 7 49.5 17.5t59.5 34t61 53.5t45 78.5t19 106.5v162h-987zM941 205q0 -32 -7 -61t-18.5 -50.5t-27.5 -40.5t-32 -31.5t-34.5 -23.5t-33 -17t-29 -10.5t-20 -6
t-9.5 -2.5l-22 -4v-58h-413v58l-22 4q-6 1 -15 3.5t-30.5 10.5t-41.5 19t-43.5 30t-41 41.5t-29 56t-11.5 72.5v28h880v-18zM941 259h-880v54h880v-54zM420 690h557v-54h-557v54zM25 690h54v-54h-54v54zM25 582h54v-54h-54v54zM420 582h557v-54h-557v54zM89 390
q38 8 57.5 32.5t22.5 48.5v203q0 15 10 25.5t19 14t13 3.5v54q-18 0 -39 -9.5t-39 -33t-18 -54.5v-198q-5 -27 -37 -34zM197 390q38 8 57.5 32.5t22.5 48.5v203q0 5 1 10t4 8l4 8q3 3 6.5 5.5t7 4.5t6.5 3t5.5 2t4.5 1.5t3 0.5v54q-18 0 -39.5 -9.5t-39 -33t-17.5 -54.5
v-198q-1 -3 -2.5 -6.5t-5 -9.5t-11.5 -10.5t-18 -7.5zM305 390q38 8 57 32.5t22 48.5v203q0 15 10 25.5t19 14t14 3.5v54q-19 0 -40 -9.5t-38.5 -33t-17.5 -54.5v-198q-6 -27 -37 -34z" />
    <glyph glyph-name="uni3474" unicode="&#x3474;" 
d="M375 776h-253q-44 0 -75.5 -31.5t-31.5 -75.5v-721q0 -44 31.5 -75.5t75.5 -31.5h253q29 0 54 14.5t39 39t14 53.5v721q0 44 -31 75.5t-76 31.5zM424 -52q0 -20 -14.5 -34.5t-34.5 -14.5h-253q-20 0 -34.5 14.5t-14.5 34.5v721q0 20 14.5 34.5t34.5 14.5h253
q13 0 24.5 -7t18 -18t6.5 -24v-721zM882 776h-253q-29 0 -54 -14.5t-39.5 -39t-14.5 -53.5v-721q0 -44 31.5 -75.5t76.5 -31.5h253q44 0 75.5 31.5t31.5 75.5v721q0 22 -8.5 41.5t-23 34t-34 23t-41.5 8.5zM931 -52q0 -20 -14.5 -34.5t-34.5 -14.5h-253q-21 0 -35 14.5
t-14 34.5v321h351v-321zM931 328h-351v341q0 20 14 34.5t35 14.5h253q20 0 34.5 -14.5t14.5 -34.5v-341zM112 679h273v-59h-273v59zM112 581h273v-58h-273v58zM112 484h273v-59h-273v59zM659.5 435q-14.5 0 -24.5 -10t-10 -24t10 -24t24.5 -10t24.5 10t10 24t-10 24
t-24.5 10zM659 153q10 0 17.5 4.5t12.5 12t5 17.5q0 14 -10 24t-25 10q-7 0 -13 -3t-10.5 -7.5t-7.5 -10.5t-3 -13q0 -15 10 -24.5t24 -9.5z" />
    <glyph glyph-name="uni3475" unicode="&#x3475;" 
d="M171 475q-44 0 -81.5 21.5t-59 59t-21.5 81.5q0 26 8 51t23 45t35 35t44.5 23t51.5 8q44 0 81.5 -21.5t59 -59t21.5 -81.5t-21.5 -81.5t-59 -59t-81.5 -21.5zM171 733q-40 0 -68 -28t-28 -68t28 -68t68 -28t68 28t28 68q0 26 -13 48t-35 35t-48 13zM497.5 475
q-67.5 0 -115 47.5t-47.5 114.5t47.5 114.5t115.5 47.5q22 0 43 -6t38.5 -16.5t32.5 -25.5t25.5 -32.5t16.5 -38.5t6 -43q0 -67 -47.5 -114.5t-115 -47.5zM498 733q-40 0 -68.5 -28t-28.5 -68t28.5 -68t68.5 -28q26 0 48 12.5t35 35t13 48.5t-13 48t-35 35t-48 13zM824 475
q-67 0 -114.5 47.5t-47.5 114.5t47.5 114.5t114.5 47.5q33 0 63 -13t52 -34.5t34.5 -51.5t12.5 -63q0 -67 -47.5 -114.5t-114.5 -47.5zM824 733q-26 0 -48 -13t-35 -35t-13 -48q0 -40 28 -68t68 -28t68 28t28 68t-28 68t-68 28zM171 142q-67 0 -114.5 47.5t-47.5 114.5
t47.5 114.5t114.5 47.5q44 0 81.5 -21.5t59 -59t21.5 -81.5q0 -26 -8 -51t-23 -44.5t-35 -34.5t-45 -23.5t-51 -8.5zM171 401q-40 0 -68 -28.5t-28 -68t28 -68t68 -28.5t68 28.5t28 67.5q0 16 -5 30.5t-14 26.5t-20.5 21t-26.5 14t-30 5zM497.5 142q-67.5 0 -115 47.5
t-47.5 114.5t47.5 114.5t115 47.5t115 -47.5t47.5 -114.5t-47.5 -114.5t-115 -47.5zM498 401q-27 0 -49 -13t-35 -35.5t-13 -48.5q0 -39 28.5 -67.5t68 -28.5t68 28.5t28.5 68t-28.5 68t-67.5 28.5zM824 142q-44 0 -81 22t-59 59t-22 81q0 67 47.5 114.5t114.5 47.5
q22 0 43 -5.5t39 -16t33 -25.5t25.5 -33t16 -39t5.5 -43q0 -33 -12.5 -63t-34.5 -51.5t-52 -34.5t-63 -13zM824 401q-26 0 -48 -13t-35 -35.5t-13 -48.5t13 -48t35 -35t48 -13q13 0 25.5 3.5t23 9.5t19.5 15t15.5 19.5t9.5 23t3 25.5q0 26 -12.5 48.5t-35 35.5t-48.5 13z
M171 -190q-67 0 -114.5 47.5t-47.5 114.5t47.5 114.5t114.5 47.5t114.5 -47.5t47.5 -114.5t-47.5 -114.5t-114.5 -47.5zM171 68q-40 0 -68 -28t-28 -68t28 -68t68 -28t68 28t28 68q0 53 -45 81q-24 15 -51 15zM497.5 -190q-67.5 0 -115 47.5t-47.5 114.5q0 44 22 81t59.5 59
t81 22t81 -22t59.5 -59t22 -81q0 -67 -47.5 -114.5t-115 -47.5zM498 68q-40 0 -68.5 -28t-28.5 -68t28.5 -68t68 -28t68 28t28.5 68q0 26 -13 48t-35 35t-48 13zM824 -190q-67 0 -114.5 47.5t-47.5 114.5t47.5 114.5t114.5 47.5t114.5 -47.5t47.5 -114.5q0 -33 -12.5 -63
t-34.5 -52t-52 -34.5t-63 -12.5zM824 68q-40 0 -68 -28t-28 -68t28 -68t68 -28t68 28t28 68t-28 68t-68 28z" />
    <glyph glyph-name="uni3476" unicode="&#x3476;" 
d="M989 475q-17 24 -36 51t-37.5 53.5t-36 50.5t-37.5 53t-36 51q-9 15 -25 15h-297h-18h-270q-6 0 -11.5 -2t-8.5 -6l-1 -1q-2 -3 -4 -5q-25 -41 -78.5 -128t-81.5 -132q-11 -18 3 -34l2 -2q76 -97 227 -290.5t226 -289.5q5 -6 10.5 -8.5t11.5 -1.5q5 0 10 2.5t9 7.5
q42 52 212 260t262 320l2 1v2q6 7 7 15.5t-4 17.5zM907 489h-180q8 23 29 80t33 88q9 -13 19.5 -28t20 -28t20 -28t19.5 -28t19.5 -28t19.5 -28zM490 677q19 -28 39.5 -58t49 -71.5t39.5 -58.5h-261q104 148 133 188zM644 431q-20 -55 -26.5 -72.5t-24 -65.5t-27 -73.5
t-24 -65.5t-27 -74t-25.5 -67q-92 261 -151 418h305zM673 512q-14 21 -31 46t-28.5 41.5t-33 47.5t-29.5 44h188q-7 -21 -16.5 -45.5t-16.5 -44.5t-16 -45t-17 -44zM306 518q-34 90 -67 173h189q-64 -90 -122 -173zM191 655q31 -79 64 -166h-166q47 77 102 166zM277 431
q60 -163 156 -432q-189 243 -337 432h181zM706 431h196q-86 -106 -356 -436q13 35 27.5 74t25.5 69.5t27.5 76t25.5 69.5t28 75.5t26 71.5z" />
    <glyph glyph-name="uni3477" unicode="&#x3477;" 
d="M887 -124h-728q-38 0 -64.5 27t-26.5 64v425q0 38 26.5 64.5t64.5 26.5h60l258 198q-2 8 -2 15q0 16 8.5 30t22.5 22t30 8q25 0 43 -17.5t18 -42.5q0 -16 -8 -30l238 -183h60q38 0 64.5 -26.5t26.5 -64.5v-425q0 -37 -26.5 -64t-64.5 -27zM556 71h122v23h-97v173h-25
v-196zM380 71l22 59h82l23 -59h29l-80 196h-28l-75 -196h27zM200 244q-9 -13 -9 -28q0 -14 7 -24.5t21 -18.5q5 -3 14.5 -6t22.5 -6q28 -7 35 -10q12 -4 18 -11q2 -3 3.5 -7t1.5 -9v-4q0 -1 -0.5 -3t-1 -3.5t-1.5 -3t-2 -3.5q-3 -4 -7 -7t-10 -5q-11 -4 -26 -4q-17 0 -30 5
q-3 2 -5.5 3t-4.5 2.5t-3.5 3t-3 3.5t-3.5 4q-6 9 -8 24l-24 -2q0 -20 10 -35q6 -8 13 -14t16 -10q17 -7 44 -7q21 0 37.5 7.5t25.5 21.5t9 29.5t-8 27.5t-25 20q-12 5 -43.5 12t-38.5 14q-3 2 -4.5 5t-2.5 6t-1 7q0 6 2.5 11t8.5 9q10 9 34 9q22 0 33.5 -9.5t13.5 -27.5
l25 2q-1 17 -9.5 30.5t-25.5 20.5t-38 7q-20 0 -36 -7q-2 -1 -4.5 -2t-4.5 -2t-3.5 -2.5t-3.5 -3t-3.5 -3t-2.5 -3t-2 -3.5zM574 649q-8 -7 -17.5 -10.5t-20.5 -3.5q-30 0 -49 25l-237 -177h546zM855 94h-120v67h108v23h-108v60h115v23h-141v-196h146v23zM441 246
q5 -16 14 -41l21 -54h-67l22 58q7 18 10 37z" />
    <glyph glyph-name="uni3478" unicode="&#x3478;" 
d="M613 390q114 -1 349 -5q-2 7 -4 15.5t-4.5 17t-3.5 14.5q-26 -19 -55.5 -42t-56.5 -43.5t-54 -41.5t-56.5 -43.5t-54.5 -42.5q-17 -12 -12 -28q19 -61 54 -173.5t50 -159.5q7 5 21 16t16 12q-51 35 -147 101t-141 97q-5 3 -13 3t-13 -3l-285 -202q2 -1 4.5 -3t5 -3.5
t5 -3.5t4.5 -4t4.5 -3.5t4.5 -3.5t4.5 -3.5t4.5 -3.5q36 121 99 335q5 16 -12 28q-38 29 -89 67t-101 75.5t-89 66.5q-3 -9 -7.5 -27t-5.5 -20q105 3 349 10q18 0 24 18q49 143 113 330h-49q5 -12 117 -328q8 -22 31 -17q21 5 19 24q0 3 -2 6q-16 45 -37 105t-42 119
t-37 105q-7 18 -25 18t-24 -18q-80 -236 -112 -331q4 4 12.5 10.5t11.5 8.5q-245 -7 -349 -10q-19 0 -23 -18t11 -28q192 -144 279 -209q-2 3 -4 8.5t-4 10.5t-3 9q-14 -46 -32 -107t-35.5 -121t-31.5 -107q-3 -9 2.5 -18.5t15 -12.5t19.5 3q157 111 284 201q-9 -4 -13 -4
t-9 2q4 -3 10 -6q8 -6 16 -11.5t16 -11.5q13 -8 32 -21t36 -25t31 -22q37 -25 73 -49.5t71 -48.5q14 -10 28 1.5t9 26.5q-13 43 -48.5 157t-54.5 176q-7 -17 -12 -28q136 105 277 213q15 11 11 28.5t-24 18.5q-227 3 -349 4q-15 1 -21.5 -11.5t0 -25.5t21.5 -13z" />
    <glyph glyph-name="uni3479" unicode="&#x3479;" 
d="M353 426q0 -13 -6.5 -24t-17.5 -17.5t-24 -6.5q-20 0 -34.5 14t-14.5 34t14.5 34t34.5 14q10 0 18.5 -3.5t15 -10t10.5 -15.5t4 -19zM353 426q0 -13 -6.5 -24t-17.5 -17.5t-24 -6.5q-20 0 -34.5 14t-14.5 34t14.5 34t34.5 14q10 0 18.5 -3.5t15 -10t10.5 -15.5t4 -19z
M778 426q0 -20 -14 -34t-34 -14q-10 0 -19 3.5t-15.5 10t-10 15.5t-3.5 19q0 20 14 34t34 14t34 -14t14 -34zM832 -117h-637q-41 0 -69.5 28.5t-28.5 68.5v496q0 40 28.5 69t69.5 29h637q27 0 49.5 -13.5t35.5 -35.5t13 -49v-496q0 -40 -28.5 -68.5t-69.5 -28.5zM195 520
q-19 0 -32 -13t-13 -31v-496q0 -18 13 -31t32 -13h637q12 0 22.5 6t16.5 16t6 22v496q0 12 -6 22.5t-16.5 16t-22.5 5.5h-637zM753 432h-54v221q0 12 -5.5 22.5t-16 16.5t-22.5 6h-283q-9 0 -17.5 -3.5t-14.5 -9.5t-9.5 -14.5t-3.5 -17.5v-221h-53v221q0 41 28.5 69.5
t69.5 28.5h283q40 0 69 -28.5t29 -69.5v-221z" />
    <glyph glyph-name="uni347A" unicode="&#x347a;" horiz-adv-x="1000" 
d="M857 407l-313 312q-9 9 -20.5 14t-23.5 5t-23.5 -5t-20.5 -14l-313 -312q-18 -19 -18 -44.5t18.5 -44t44 -18.5t44.5 18l206 206v-599q0 -10 3 -19.5t8.5 -17.5t13.5 -13.5t17.5 -9t19.5 -3.5q26 0 44 18.5t18 44.5v599l206 -206q19 -18 44 -18q13 0 24.5 4.5t20.5 13.5
t13.5 21t4.5 23.5t-4.5 23.5t-13.5 21z" />
    <glyph glyph-name="uni347B" unicode="&#x347b;" horiz-adv-x="1026" 
d="M1001 38h-125v-58q0 -26 -18 -44t-44 -18h-63q-26 0 -44 18t-18 44v58h-375v-58q0 -26 -18.5 -44t-44.5 -18h-63q-26 0 -44 18t-18 44v58h-126v197q0 56 35.5 87t89.5 35q4 17 12.5 46t18 62.5t20 67t19.5 59.5q27 76 113 76h388q39 0 64 -21.5t35 -50.5l21 -62
q11 -34 22.5 -68t21.5 -63.5t16 -45.5q54 -5 89.5 -36t35.5 -86v-197zM123 167q26 0 44.5 18t18.5 44t-18.5 44.5t-44.5 18.5t-44 -18.5t-18 -44.5t18 -44t44 -18zM775 356l-37 183h-476l-33 -183h546zM875 167q26 0 45 19t19 45q0 27 -19 45.5t-45 18.5q-27 0 -45.5 -18.5
t-18.5 -45.5q0 -26 18.5 -45t45.5 -19z" />
    <glyph glyph-name="uni347C" unicode="&#x347c;" horiz-adv-x="1000" 
d="M0 675v-750h1000v750h-1000zM188 -12h-126v124h126v-124zM188 238h-126v124h126v-124zM188 488h-126v124h126v-124zM750 -12h-500v624h500v-624zM938 -12h-126v124h126v-124zM938 238h-126v124h126v-124zM938 488h-126v124h126v-124zM375 488v-376l250 188z" />
    <glyph glyph-name="uni347D" unicode="&#x347d;" 
d="M501 840q16 0 22 -6.5t7 -12.5q1 -11 -2 -16t0 -15q2 -5 6.5 -11.5t17.5 -10.5q14 -4 30.5 -12t30.5 -27q4 -6 7.5 -14t5.5 -16q3 -9 4 -17h-258q1 7 3 14q2 6 4 13t7 15q8 14 25 26t34 17t19.5 8.5t7.5 9.5q4 5 3 13.5t-3 16.5q-3 13 7.5 19t21.5 6zM679 601
q0 -43 -43 -43h-270q-43 0 -43 43q0 20 12.5 31t30.5 11h270q22 0 32.5 -12.5t10.5 -29.5zM550 516q30 0 56.5 -4t46 -16t31 -34t11.5 -57v-398q0 -27 -5.5 -43.5t-17 -25.5t-28.5 -12t-40 -3h-46h-47q-24 0 -51 -0.5t-60 -0.5t-51.5 6.5t-28 19t-11.5 30t-2 40.5v360
q0 34 2.5 51.5t9.5 34.5q7 18 25.5 28t39.5 15.5t39 7t25 1.5h53h12q6 0 15 -0.5t22 0.5zM445 362q0 14 -10 24t-24 10t-24 -10t-10 -24v-286q0 -14 10 -24t24 -10t24 10t10 24v286z" />
    <glyph glyph-name="uni347E" unicode="&#x347e;" 
d="M183 731q28 0 47.5 -19t19.5 -47v-51q0 -28 -19.5 -47.5t-47.5 -19.5h-53q-27 0 -46.5 19.5t-19.5 47.5v51q0 28 19.5 47t46.5 19h53zM869 731q27 0 46.5 -19t19.5 -47v-51q0 -28 -19.5 -47.5t-46.5 -19.5h-427q-28 0 -47.5 19.5t-19.5 47.5v51q0 28 19.5 47t47.5 19h427
zM183 420q28 0 47.5 -19.5t19.5 -47.5v-51q0 -27 -19.5 -46.5t-47.5 -19.5h-53q-27 0 -46.5 19.5t-19.5 46.5v51q0 28 19.5 47.5t46.5 19.5h53zM869 420q27 0 46.5 -19.5t19.5 -47.5v-51q0 -27 -19.5 -46.5t-46.5 -19.5h-427q-28 0 -47.5 19.5t-19.5 46.5v51q0 28 19.5 47.5
t47.5 19.5h427zM183 108q28 0 47.5 -19.5t19.5 -46.5v-51q0 -28 -19.5 -47.5t-47.5 -19.5h-53q-27 0 -46.5 19.5t-19.5 47.5v51q0 27 19.5 46.5t46.5 19.5h53zM869 108q27 0 46.5 -19.5t19.5 -46.5v-51q0 -28 -19.5 -47.5t-46.5 -19.5h-427q-28 0 -47.5 19.5t-19.5 47.5v51
q0 27 19.5 46.5t47.5 19.5h427z" />
    <glyph glyph-name="uni347F" unicode="&#x347f;" 
d="M338 12q19 0 36 -7t29.5 -19.5t20 -29.5t7.5 -36t-7.5 -36t-20 -29.5t-29.5 -20t-36 -7.5q-20 0 -37 7.5t-29.5 20t-20 29.5t-7.5 36t7.5 36t20 29.5t29.5 19.5t37 7zM754 10q19 0 36.5 -7t30 -19.5t20 -29.5t7.5 -36t-7.5 -36t-20 -29.5t-30 -20t-36.5 -7.5t-36 7.5
t-29.5 20t-20 29.5t-7.5 36t7.5 36t20 29.5t29.5 19.5t36 7zM922 578q28 0 43.5 -7.5t22 -18.5t6 -23.5t-3.5 -21.5t-13 -37t-21.5 -61.5t-23 -66.5t-18.5 -52q-13 -40 -32.5 -55.5t-48.5 -15.5h-35h-64h-84h-94h-248l14 -90h505q48 0 48 -41q0 -20 -9.5 -34.5t-37.5 -14.5
h-48h-92h-116h-117h-97h-54q-20 0 -33.5 9t-22.5 23.5t-14.5 31.5t-8.5 32q-1 6 -5.5 29t-11 57.5t-14.5 77t-16 85.5q-19 101 -43 225h-75q-15 0 -25 7.5t-16.5 18t-9 22.5t-2.5 22q0 20 13.5 33t36.5 13h21h21h25h34q20 0 32 -6t19 -15t10 -19t5 -17q2 -8 4 -22.5t4 -29.5
q3 -18 6 -38h684zM847 610h-366l132 132q23 23 50.5 23.5t50.5 -22.5z" />
    <glyph glyph-name="uni3480" unicode="&#x3480;" 
d="M49 382l6 -4h458l-108 353l-1 2q-2 7 -6 14.5t-12.5 19t-20.5 18.5t-26 7q-8 0 -15 -2q-14 -5 -22 -16t-9.5 -19t-2.5 -19q-1 -9 -2 -12l-7 6q-5 6 -8 9t-8.5 7t-12 6.5t-13.5 2.5q-4 0 -7 -1l-8 -2q-3 -1 -7 -3q-29 -17 -20 -63q1 -8 1 -11q-2 0 -4 2q-18 6 -30 6
q-23 0 -40 -20q-12 -14 -12 -30t4 -23.5t11 -17.5q3 -5 5 -7q-2 1 -5 1q-12 4 -20 4q-9 0 -19 -4.5t-18 -17.5q-21 -32 15 -70l3 -3l2 -3l3 -2q-3 -1 -10 0q-2 0 -3.5 0.5t-3.5 0.5h-3h-3q-32 0 -45 -28q-10 -18 -6.5 -34.5t11.5 -28t19 -18.5zM70 440q2 0 8 -1
q4 0 7.5 -0.5t6.5 -0.5q31 0 47 26q6 9 7 18t-0.5 16t-6.5 14.5t-8 11.5t-8 9l-1 1l-1 1q6 -2 12 -2q12 0 22.5 6t18.5 17q10 13 9.5 27.5t-4.5 22t-10 16.5q-4 6 -5 8l1 1v1l10 -3q5 -2 8 -3.5t8.5 -2.5t11.5 -1q17 0 30 12q22 19 15 57q9 -10 19 -15.5t22 -5.5q10 0 19 4
q13 6 20.5 17.5t9.5 19t3 20.5l1 7q8 -8 14 -23l87 -285h-371q-3 4 -2 10zM284 -21q-35 0 -60 -25t-25 -60q0 -23 11.5 -42.5t31 -31t42.5 -11.5t43 11.5t31 31t11 42.5q0 48 -41 73q-21 12 -44 12zM284 -140q-9 0 -16.5 4.5t-12.5 12.5t-5 17t5 17t12.5 12.5t16.5 4.5
q7 0 13 -3t11 -7.5t7.5 -10.5t2.5 -13q0 -14 -10 -24t-24 -10zM568 -21q-24 0 -43.5 -11.5t-31 -31t-11.5 -42.5q0 -35 25 -60t60.5 -25t60.5 25t25 60q0 8 -1.5 15.5t-4 14.5t-6.5 13t-8.5 11.5t-10 10.5t-12 8.5t-13.5 6.5t-14.5 4t-14.5 1zM568 -140q-6 0 -11 2t-9.5 5
t-7.5 7t-4.5 9.5t-1.5 10.5q0 14 10 24t23.5 10t23.5 -10t10 -24q0 -9 -4.5 -17t-12 -12.5t-16.5 -4.5zM965 681q-64 63 -130 29q-7 -4 -14.5 -10.5t-13 -13.5t-11 -16t-9.5 -16.5t-9.5 -17t-8.5 -15.5q-57 -94 -154 -260h-584l3 -28q7 -66 46 -143q96 -187 305 -205
q22 -2 44 -2q81 0 147 25t106.5 63t68.5 87t39.5 92.5t13.5 83.5l2 27h-131q47 81 88 150q40 68 68 114q14 22 26.5 33t31 9.5t39.5 -22.5q11 -11 25 -6.5t17.5 17.5t-5.5 25zM429 34q-52 0 -97.5 11.5t-77.5 29.5t-59 44t-44 50.5t-30 53t-19.5 48t-10.5 39.5h659
q-22 -137 -115 -211q-82 -64 -206 -65z" />
    <glyph glyph-name="uni3481" unicode="&#x3481;" 
d="M959 279q0 90 -76 122q-33 14 -84 15v1h-727v-288q0 -105 41 -168t100 -89h-91v-50h644v50h-106q37 15 66 44q20 21 35 49.5t22 52.5t11 50t4.5 37.5t0.5 20.5q76 6 118 46t42 107zM690 -50q-22 -22 -52.5 -33.5t-67.5 -11.5h-290q-4 0 -11 1t-23 6t-31 13.5t-33 26
t-30.5 40t-21 58.5t-8.5 79v238h628v-240v-7q0 -5 -1 -17.5t-3 -25.5t-6.5 -30.5t-10.5 -33.5t-16 -32.5t-23 -30.5zM799 176v191q41 -2 65 -12q45 -19 45 -76q0 -94 -110 -103zM254 813h49v-330h-49v330zM419 813h50v-330h-50v330zM568 813h49v-330h-49v330z" />
    <glyph glyph-name="uni3482" unicode="&#x3482;" 
d="M765 811h-502q-36 0 -62 -25.5t-26 -61.5v-77q0 -36 26 -61.5t62 -25.5h502q37 0 62.5 25.5t25.5 61.5v77q0 24 -11.5 44t-32 31.5t-44.5 11.5zM795 647q0 -8 -4 -14.5t-11 -10.5t-15 -4h-502q-12 0 -21 8.5t-9 20.5v77q0 12 9 20.5t21 8.5h502q13 0 21.5 -8.5t8.5 -20.5
v-77zM765 540h-502q-36 0 -62 -25.5t-26 -61.5v-542q0 -36 26 -61.5t62 -25.5h502q37 0 62.5 25.5t25.5 61.5v542q0 36 -25.5 61.5t-62.5 25.5zM795 -89q0 -12 -8.5 -20.5t-21.5 -8.5h-502q-12 0 -21 8.5t-9 20.5v542q0 12 9 20.5t21 8.5h502q13 0 21.5 -8.5t8.5 -20.5v-542
zM618 359q-11 2 -23 2q-24 0 -45 -9t-38 -25q-36 34 -83 34q-6 0 -11.5 -0.5t-11.5 -1.5q-33 -6 -57.5 -27.5t-33.5 -52.5q-6 -25 -3.5 -49.5t14 -47.5t30.5 -40q44 -40 119 -114l17 -17l20 -19l20 19l16 16q74 73 120 115q29 26 40 63.5t1 73.5q-6 21 -19 37.5t-31.5 27.5
t-40.5 15zM629 185q-46 -42 -117 -112q-19 18 -33.5 33t-39 38t-44.5 41q-16 15 -23 36.5t-1 40.5q10 33 45 40l13 1q37 0 58 -36l25 -42l25 42q2 3 4.5 6t8 9t11.5 10t15.5 7.5t18.5 3.5q7 0 13 -1q36 -7 45 -39q4 -14 2.5 -28t-8.5 -27t-18 -23z" />
    <glyph glyph-name="uni3483" unicode="&#x3483;" 
d="M529 391q16 0 31.5 5t27.5 14t21.5 21.5t14.5 27.5t5 31q0 28 -13.5 50.5t-36.5 36t-50 13.5q-20 0 -38.5 -8t-32 -21t-21.5 -31.5t-8 -39.5q0 -41 29.5 -70t70.5 -29zM529 533q17 0 29.5 -12.5t12.5 -30.5q0 -5 -1.5 -10.5t-4 -10t-6.5 -8.5t-8.5 -7t-10 -4.5
t-11.5 -1.5q-17 0 -29.5 12.5t-12.5 30t12.5 30t29.5 12.5zM837 456q0 4 0.5 7t0.5 6.5t0.5 7t0.5 6.5q0 89 -43 165.5t-116.5 120.5t-160 44t-160 -44t-116.5 -120.5t-43 -165.5q0 -10 2 -27h-81v-633h787v633h-71zM519.5 756q108.5 0 185 -80t76.5 -193q0 -17 -4 -40
l-1 -6l-1 1q-2 -7 -4 -15q-9 -30 -15 -43h-473q-3 6 -6.5 15t-5 15t-4.5 15l-1 1q0 3 -0.5 4t-1 3t-1.5 4l-2 6q-1 5 -1 10l-2 10v10v10q0 113 76.5 193t185 80zM851 -120h-672v365h672v58h-672v96h34q6 -20 13.5 -36t16.5 -29l9 -12h535l9 12q17 23 28 65h27v-519z" />
    <glyph glyph-name="uni3484" unicode="&#x3484;" 
d="M516 811q-81 0 -156.5 -25t-136.5 -71t-106.5 -106.5t-70.5 -136t-25 -156.5q0 -100 39 -192t105.5 -158t158 -105.5t192 -39.5t192 39.5t158 105.5t105.5 158t39 192.5t-39 192t-105.5 157.5t-158 105.5t-191.5 39.5zM516 -129q-91 0 -173 35.5t-142 95t-95 142
t-35 172.5t35 172.5t95 142t142 95t172.5 35.5t173 -35.5t142 -95t94.5 -142t35 -172.5q0 -72 -22.5 -140t-63.5 -122.5t-95.5 -96t-122.5 -64t-140 -22.5zM389.5 557q15.5 0 26.5 10.5t11 26t-11 26.5t-26.5 11t-26.5 -11t-11 -26.5t11 -26t26.5 -10.5zM642 557q7 0 14 2.5
t12 7.5t8 12t3 15q0 10 -5 18.5t-13.5 13.5t-18.5 5t-19 -5t-14 -13.5t-5 -18.5q0 -4 1 -8.5t3 -8t4.5 -7t6 -6t7 -4.5t7.5 -2.5t9 -0.5zM515.5 557q15.5 0 26.5 10.5t11 26t-11 26.5t-26.5 11t-26.5 -11t-11 -26.5t11 -26t26.5 -10.5zM636 145q67 58 67 131
q0 71 -51.5 127.5t-133.5 56.5q-79 0 -129.5 -56.5t-50.5 -127.5q0 -31 9.5 -58t21.5 -43.5t28 -30.5q-24 -16 -43 -38t-33.5 -58.5t-14.5 -77.5q0 -11 7.5 -18t17.5 -7t17.5 7t7.5 18q0 31 10 57.5t22.5 42t29 27.5t23.5 15.5t12 4.5q7 3 11.5 9t5.5 14q1 16 -14 24
q-4 1 -9 4t-16.5 13t-20 21.5t-15.5 31.5t-7 42q0 51 36.5 92.5t93.5 41.5q59 0 97 -41.5t38 -92.5q0 -14 -4.5 -28t-10.5 -24.5t-15 -20.5t-16 -16.5t-15 -13t-10.5 -8t-4.5 -2.5q-14 -8 -12.5 -24t16.5 -21l11 -6q7 -3 24.5 -15.5t30.5 -27.5t24 -42t11 -57q0 -7 3 -13
t9 -9t13 -3q10 0 17.5 7t7.5 18q0 112 -96 175z" />
    <glyph glyph-name="uni3485" unicode="&#x3485;" 
d="M841 549q4 -7 6 -18q1 -3 1.5 -7t0.5 -8v-7q0 -5 -1 -11t-3 -11.5t-5.5 -11t-8.5 -10.5q-5 -6 -10 -10.5t-9 -8.5q-8 -7 -14 -14q-7 -7 -13 -12l-164 163q11 10 25 24q7 6 13 11.5t11 9.5q6 5 12.5 8t13.5 5q13 4 25 4q7 0 13 -1t12 -3t11 -4t9 -4q5 -2 9.5 -5.5t10 -7.5
t10.5 -9l11 -11q11 -12 19.5 -25t14.5 -26zM162 124q5 5 24 24.5t48 48.5l64 64l70 70l188 188l163 -164l-188 -188l-69 -70q-18 -17 -33.5 -33t-29.5 -30l-47 -46q-18 -19 -21 -21q-9 -8 -20.5 -17t-23.5 -14q-12 -6 -35.5 -15t-49.5 -17t-49 -14t-34 -8q-24 -3 -31.5 6.5
t-4.5 32.5q2 12 8.5 35.5t14 48.5t14.5 45q1 3 1.5 5.5t1.5 4.5t1.5 4t1.5 4l2 4v2l1.5 3t1.5 2q3 6 5.5 11.5t6.5 10.5q6 10 19 23zM162 124zM452 -41h78v-78h-78v78zM611 -41h78v-78h-78v78zM770 -41h78v-78h-78v78z" />
    <glyph glyph-name="uni3486" unicode="&#x3486;" horiz-adv-x="1031" 
d="M797 339h-104q-87 0 -130 45q-40 42 -38 108v208q0 7 -2.5 13t-7 10.5t-10.5 7t-12 2.5h-438q-9 0 -16.5 -4.5t-12 -12t-4.5 -16.5v-656l1 -6q-1 -3 -1 -5v-88q0 -18 16 -28q10 -15 28 -15h908q9 0 16.5 4t12 11.5t4.5 16.5v110v77q0 39 -10.5 72t-28 55.5t-39 40
t-45.5 28t-45.5 16t-41.5 6.5zM88 667h372v-173q1 -2 0 -10.5t2 -26.5t7.5 -36.5t16.5 -40.5t29 -40q62 -67 178 -67h102q7 0 18 -1.5t35.5 -11t43.5 -24.5t34 -45t15 -70v-44h-853v590zM941 -33h-853v44h853v-44zM371.5 629q-12.5 0 -21 -9t-8.5 -21.5t8.5 -21t21.5 -8.5
q8 0 15 4t11 11t4 15q0 12 -9 21t-21.5 9zM371.5 530q-12.5 0 -21 -9t-8.5 -21q0 -8 4 -15t11 -11t15 -4q21 0 28 21q2 4 2 9q0 12 -9 21t-21.5 9zM372 431q-13 0 -21.5 -8.5t-8.5 -21.5q0 -4 1 -8t3 -7t4.5 -6t6 -5t7.5 -3t8 -1q12 0 21 9t9 21q0 6 -2.5 11.5t-6.5 9.5
t-9.5 6.5t-11.5 2.5z" />
    <glyph glyph-name="uni3487" unicode="&#x3487;" 
d="M833 808h-636q-10 0 -20.5 -2.5t-20 -7t-17.5 -11t-14.5 -14.5t-11 -17t-7 -19.5t-2.5 -21.5v-791q0 -39 27.5 -66.5t65.5 -27.5h636q39 0 66 27.5t27 66.5v791q0 19 -7 36t-19.5 29.5t-30 20t-36.5 7.5zM860 -76q0 -11 -8 -19t-19 -8h-636q-11 0 -18.5 8t-7.5 19v791
q0 7 3.5 13t9.5 10t13 4h636q11 0 19 -8t8 -19v-791zM237 -59h556v734h-556v-734zM282 -14v173q4 2 6 4l159 126l75 -98q4 -4 9.5 -6.5t11.5 -1.5t10 4l93 71l103 -130v-142h-467zM749 630v-430l-82 102q-5 8 -14 9t-17 -5l-92 -70l-75 98q-6 7 -15 8t-17 -5l-155 -123v416
h467z" />
    <glyph glyph-name="uni3488" unicode="&#x3488;" 
d="M517 753q-88 0 -169 -35t-139.5 -93t-93 -139t-34.5 -169.5t34.5 -169.5t93 -139.5t139.5 -93t169.5 -34.5t169.5 34.5t139.5 93t93 139.5t34.5 169q0 71 -22 138t-62.5 120.5t-94 94t-120.5 62.5t-138 22zM399 93q-14 0 -24 10t-10 23q0 7 3 13.5t7.5 11t10.5 7t13 2.5
q3 0 5.5 -0.5t5.5 -1.5l4 -2q3 -1 5 -2.5t3 -3.5l4 -4l2 -4q2 -2 2.5 -4.5t1 -5.5t0.5 -6q0 -9 -4.5 -16.5t-12 -12t-16.5 -4.5zM604 84q-13 0 -23.5 6t-16.5 16.5t-6 23t6 23t16.5 17t23.5 6.5q19 0 32.5 -13.5t13.5 -33t-13.5 -32.5t-32.5 -13zM808 491q0 -6 -3 -11.5
t-9 -8.5t-13 -3h-79l-90 -256q-3 -7 -9.5 -11.5t-14.5 -4.5h-2h-242q-10 0 -17.5 7t-7.5 17v7q0 10 7.5 17t17.5 7h224l11 34h-276q-6 0 -11.5 3t-8.5 8.5t-3 11.5v7q0 10 6.5 17t16.5 7h295h1l11 33h-332q-10 0 -17 7t-7 17v7q0 10 7 16.5t17 6.5h352l28 81q5 15 21 16h2h2
h98q10 0 17.5 -7t7.5 -16v-9z" />
    <glyph glyph-name="uni3489" unicode="&#x3489;" 
d="M155 385v71h87l175 171q-2 6 -2 10q0 7 3 13.5t7.5 11t11 7t13.5 2.5q14 0 24.5 -10t10.5 -24q0 -9 -5 -17t-13 -12.5t-17 -4.5q-2 0 -5 1l-2 1l-153 -149h450l-152 149q-6 -2 -9 -2q-14 0 -24.5 10t-10.5 24t10.5 24t24.5 10t24.5 -10t10.5 -24q0 -1 -0.5 -3t-1 -3
t-0.5 -3l175 -172h88v-71h-720zM733 50q-7 -26 -26 -25l-385 -1q-4 0 -7.5 1.5t-6 3.5t-4.5 4.5t-3.5 5.5t-2 5t-0.5 4l-1 1l-102 298l640 1z" />
    <glyph glyph-name="uni348A" unicode="&#x348a;" 
d="M976 317q-2 16 -15.5 29t-33 21t-35 13t-31 7.5t-63 4t-123.5 0.5q-4 7 -10.5 17.5t-16 28t-20.5 34.5q43 39 55 54q10 12 6.5 20.5t-12.5 12.5t-20 4h-19h-26h-22h-14q-76 132 -96 162q-16 25 -40.5 30.5t-42 -5t-15.5 -25.5q2 -27 83 -337q-1 0 -4 -0.5t-4 -0.5
q-56 -1 -106 -7t-94 -15q-4 5 -9 10t-13 13.5t-15.5 17t-17 18.5t-17.5 19t-16.5 18.5t-15.5 16.5q-11 13 -21 18.5t-17 4t-12 -6t-7 -10.5t-1 -11q7 -44 36 -142q-11 -3 -17.5 -6.5t-6.5 -8.5v0q0 -9 24 -15q-29 -98 -36 -142q0 -2 0.5 -5t1.5 -6.5t3.5 -6t5.5 -5t6.5 -3.5
t8 -0.5t9.5 2.5t11 7t12 12q36 41 104 113q29 -5 58.5 -9.5t66.5 -8t75 -4.5h4h4q-81 -310 -83 -337q-2 -15 15.5 -25.5t42 -5.5t40.5 31q19 30 96 162h19h36h26q8 0 15 2t12.5 6.5t5.5 12t-7 16.5q-12 15 -55 53q11 18 20.5 35t16 28t10.5 18q38 -1 69.5 -0.5t55 1t39 1.5
t22.5 2q21 4 44 12t46 24.5t25 35.5z" />
    <glyph glyph-name="uni348B" unicode="&#x348b;" 
d="M821 147q15 -9 27 -22t21 -29q19 -33 19 -72q0 -30 -12 -57l-4 -8l-4 -8l-6 -8q-2 -4 -5 -7l-6 -8l-6 -6q-10 -10 -21.5 -18t-24.5 -13q-26 -12 -57 -12q-38 0 -69.5 18.5t-51.5 48.5q-3 3 -6 7.5t-7 8.5q-15 21 -18.5 50.5t-3.5 61.5q2 39 2 63q1 10 0.5 19.5t-1.5 18.5
t-3 17q-11 19 -23 40q-13 22 -29 44q-2 3 -5 6l-4 6q-18 -22 -34 -43q-2 -2 -4 -5t-4 -5.5t-4.5 -5.5t-4.5 -5.5t-4 -5.5t-4 -5.5t-4.5 -5.5t-4.5 -6q-4 -5 -8 -11q-3 -6 -7 -11q-5 -9 -7 -16.5t-2 -14.5q0 -13 3 -25q2 -6 4 -12.5t4 -13.5q4 -13 4 -30q1 -8 -0.5 -18
t-3.5 -22q-5 -23 -20 -55q-16 -42 -52 -68q-8 -6 -15.5 -10t-15.5 -7t-17 -5.5t-17.5 -3.5t-18.5 -1q-30 0 -56 11.5t-46 31.5q-7 7 -12.5 14.5t-10.5 15.5t-8 17q-12 26 -12 56q0 34 14 62.5t38 48.5q11 12 23 22.5t25 18.5q25 16 50 30q24 13 47 27q22 14 39 34q4 4 7 9
t7 9l1 1q2 4 4.5 7.5t5.5 6.5q13 16 26 35q6 9 13 18t13 18q-23 25 -41 41q-17 16 -32 37q-16 21 -29.5 43.5t-24.5 45.5q-22 46 -34 88q-4 13 -7 26t-4.5 25t-1.5 23q0 33 12 49q1 0 2 1l4 2q1 1 3 1.5t4.5 1t4.5 1.5q6 1 11 -1.5t8 -7.5q15 -22 38 -58q20 -31 46 -69
q8 -13 17 -26l16 -26q9 -13 18 -27q25 -37 54 -80q5 7 10 15q3 4 5.5 8t5.5 7q25 37 47 75q12 18 22.5 36.5t20.5 36.5q7 13 13 23.5t11.5 21t10.5 19.5q14 26 23 43q3 3 6 5.5t7 3.5t9 1h7q2 0 5 -1t5.5 -2t5 -2.5t4.5 -3.5q3 -3 5.5 -11t4.5 -21q4 -27 -3 -68.5
t-29.5 -95.5t-70.5 -115l-29 -37q-15 -18 -30 -37q20 -31 40 -61q8 -14 17 -26.5t17 -25.5q12 -12 23.5 -21.5t22.5 -16.5q24 -14 45 -23q4 -2 8.5 -4t7.5 -3l8 -4q5 -3 7 -4l8 -3q19 -9 33 -22zM285 -43q30 0 50.5 21t20.5 51q0 7 -1.5 14t-4 13.5t-6.5 12t-9 11.5
q-7 7 -14.5 11.5t-16.5 7t-19 2.5q-29 0 -50 -21q-6 -6 -9.5 -11.5t-6.5 -12t-4 -13.5t-1 -14q0 -30 21 -51q10 -11 23 -16t27 -5zM742 -43q29 0 49.5 20.5t20.5 50.5t-20.5 51t-49.5 21q-15 0 -27.5 -5t-23.5 -16q-21 -21 -21 -51q0 -15 5 -28q2 -4 4.5 -8t5 -7.5t6.5 -6.5
q2 -3 4.5 -5t5.5 -4t6 -3l7 -4q1 0 3 -1t4 -1l4 -2h4q2 -1 4 -1h4h5zM742 -43z" />
    <glyph glyph-name="uni348C" unicode="&#x348c;" 
d="M954 605q0 -27 -25 -50q-6 -6 -13.5 -11.5t-16 -10.5t-18 -9.5t-20.5 -9.5q-43 -17 -101 -26.5t-124 -9.5q-33 0 -64 2.5t-61 6.5q-14 3 -27.5 6t-26.5 6t-24.5 7t-22.5 8q-43 18 -69 41q-12 11 -18.5 23.5t-6.5 26.5q0 27 25 50t68 41q22 9 47 16t54 12t60.5 7.5
t64.5 2.5q67 0 125 -10t101 -28q22 -9 39 -19t29 -22q9 -8 14.5 -16t8 -16.5t2.5 -17.5zM636 658q-40 0 -67 -14q-14 -7 -21 -15.5t-7 -18t7 -18t21 -15.5q3 -2 7 -3l10 -4q4 -1 8.5 -2t9.5 -1.5t10 -1.5t10 -1h12q39 0 67 13q7 4 12.5 7.5t9 7.5t5 8.5t1.5 9.5q0 20 -28 34
q-5 2 -11 4.5t-12.5 4t-13.5 3t-14.5 2t-15.5 0.5zM317 519q7 -6 15.5 -12t18 -11t20 -10.5t21.5 -9.5q39 -17 99 -30.5t144 -13.5q86 0 146 14q20 4 37.5 9t33 10t28.5 11q23 9 41.5 20t32.5 23v-502q0 -16 -17.5 -35.5t-54.5 -38t-94 -30.5q-58 -13 -138 -13q-41 0 -77 3
t-67 8q-62 11 -104.5 27.5t-63.5 37.5q-22 21 -22 41v271q0 108 1 231zM265 508h-189l82 -246l-82 -245h189v491zM265 508z" />
    <glyph glyph-name="uni348D" unicode="&#x348d;" horiz-adv-x="1000" 
d="M880 607q-31 32 -71 49t-84 17q-69 0 -128 -39q-12 -9 -23.5 -18.5t-21.5 -21t-19.5 -24t-17.5 -25.5q-33 57 -83 91q-58 40 -126 40q-92 0 -156 -68q-33 -36 -50.5 -84.5t-18.5 -107.5q0 -92 69 -161q39 -39 137 -95q32 -18 46 -27q65 -40 112.5 -90t54.5 -75l8 -26h16
l7 27q4 14 26 41t60 62t80 63q18 12 57 35q31 18 47.5 28.5t41 28.5t42.5 35q33 34 48.5 72.5t15.5 83.5q-1 118 -69 189z" />
    <glyph glyph-name="uni348E" unicode="&#x348e;" horiz-adv-x="1000" 
d="M880 607q-31 32 -71 49t-84 17q-69 0 -128 -39q-12 -9 -23.5 -18.5t-21.5 -21t-19.5 -24t-17.5 -25.5q-33 57 -83 91q-58 40 -126 40q-92 0 -156 -68q-33 -36 -50.5 -84.5t-18.5 -107.5q0 -92 69 -161q39 -39 137 -95q32 -18 46 -27q65 -40 112.5 -90t54.5 -75l8 -26h16
l7 27q6 22 55 73t111 93q18 12 57 35q23 13 35.5 21t32 20.5t34.5 25t29 25.5q65 67 64 156q-1 118 -69 189zM738 197q-40 -23 -59 -35q-24 -17 -49 -37t-46.5 -40t-39 -40t-28.5 -37l-6 8l-6 8l-8 10q-3 4 -7 8.5t-8 9.5t-9 10q-54 56 -122 98q-15 9 -47 28
q-26 15 -39.5 23t-37 23.5t-36.5 27t-30 30t-25.5 36t-15 40.5t-6.5 48q1 45 12 83.5t30 64.5t44 44.5t52 27t55 8.5q41 0 78 -17t67 -48.5t49 -75.5l15 -32l15 32q28 64 80.5 101t114.5 37q35 0 68.5 -14t61.5 -40t45 -70t17 -100q0 -27 -6 -51.5t-21 -45t-28.5 -36
t-38.5 -33t-40 -27t-45 -27.5z" />
    <glyph glyph-name="uni348F" unicode="&#x348f;" horiz-adv-x="1000" 
d="M1000 412l-345 50l-155 314l-155 -314l-345 -50l250 -243l-59 -345l309 163l309 -163l-59 345zM500 64l-218 -115l41 243l-176 173l244 35l109 221l109 -221l244 -35l-176 -173l41 -243z" />
    <glyph glyph-name="uni3490" unicode="&#x3490;" horiz-adv-x="1000" 
d="M1000 412l-345 50l-155 314l-155 -314l-345 -50l250 -243l-59 -345l309 163l309 -163l-59 345z" />
    <glyph glyph-name="uni3491" unicode="&#x3491;" horiz-adv-x="1000" 
d="M897 318q-17 0 -31.5 -8t-23 -22.5t-8.5 -31.5v-294h-670v670h293q26 0 44.5 18.5t18.5 44.5t-18.5 44.5t-44.5 18.5h-335q-17 0 -32.5 -6.5t-27 -18t-18 -27t-6.5 -32.5v-754q0 -34 24.5 -58.5t59.5 -24.5h754q34 0 59 24.5t25 58.5v336q0 26 -18.5 44t-44.5 18zM268 68
q155 57 182 84l397 396l-99 98l-396 -396q-8 -7 -19.5 -28.5t-22 -47t-20.5 -50t-16 -40.5zM979.5 779.5q-20.5 20.5 -49.5 20.5t-49 -20l-82 -82l99 -99l82 82q20 20 20 49t-20.5 49.5z" />
    <glyph glyph-name="uni3492" unicode="&#x3492;" horiz-adv-x="1000" 
d="M689 274q12 -13 30 -13t31 13l170 171q13 12 13 30t-13 31l-170 171q-13 12 -31 12t-30.5 -12.5t-12.5 -30.5t13 -30l140 -141l-140 -140q-7 -6 -10 -14t-3 -16.5t3 -16.5t10 -14zM847 5h-684v556h257v85h-257q-35 0 -60 -25t-25 -60v-556q0 -35 25 -60t60 -25h684
q36 0 61 25t25 60v214h-86v-214zM826 518h-214q-124 0 -211.5 -87.5t-87.5 -211.5v-86h85v86q0 88 63 150.5t151 62.5h214q21 0 43 -4v87q-24 3 -43 3z" />
    <glyph glyph-name="uni3493" unicode="&#x3493;" horiz-adv-x="1000" 
d="M849 477l-48 47l43 43q32 32 56 8t-8 -56zM820 446l-225 -226l-91 -44l43 91l225 227zM801 317v-208q0 -45 -32 -77.5t-77 -32.5h-347q-45 0 -77 32.5t-32 77.5v385q0 46 32 78t77 32h347q11 0 21.5 -2.5t20.5 -6.5t19 -10h38q-40 44 -99 44h-347q-36 0 -67 -18t-49 -49
t-18 -68v-385q0 -56 39 -95.5t95 -39.5h347q55 0 94.5 39.5t39.5 95.5v208h-25z" />
    <glyph glyph-name="uni3494" unicode="&#x3494;" horiz-adv-x="1000" 
d="M284 286h185h16h60h23h178q12 0 21 9t9 21.5t-9 21t-21 8.5h-178h-23h-60h-16h-185q-12 0 -21 -8.5t-9 -21t9 -21.5t21 -9z" />
    <glyph glyph-name="uni3495" unicode="&#x3495;" horiz-adv-x="1000" 
d="M817 86q60 34 94 82.5t34 103.5q0 57 -36 107t-98 83q6 -18 8.5 -35.5t2.5 -35.5q0 -62 -32 -118t-92 -98q-116 -81 -275 -81q-6 0 -14 0.5t-13.5 1t-14.5 0.5q46 -29 104 -45t122 -16q22 0 43 2t42 5q29 -20 63 -35t70 -24q6 -1 13 -2.5t14 -2.5l14 -2q14 -2 17 13
q2 8 -8 19l-2 2q-3 3 -9 9.5t-10 10.5t-9.5 11t-9.5 13t-9 14.5t-9 17.5zM423 628q-92 0 -169.5 -31.5t-123 -86t-45.5 -119.5q0 -55 34.5 -104t93.5 -82q-5 -11 -10 -20.5t-12 -18t-11 -13t-12.5 -13.5t-10.5 -12q-11 -13 -10 -20q3 -14 16 -14h1q12 2 22 3.5t19 4.5
q74 18 134 59q20 -3 41.5 -5t42.5 -2q92 0 169.5 31.5t123 86.5t45.5 119.5t-45.5 119t-123 86t-169.5 31.5zM423 213q-9 0 -18.5 0.5t-18.5 1.5l-18 2q-9 1 -18 3l-26 4l-21 -14q-5 -3 -10 -6.5t-9.5 -6t-10.5 -5.5l17 39l-46 26q-31 17 -52.5 38.5t-33 46t-11.5 49.5
q0 72 82 125t194 53t194 -53t82 -125q0 -47 -37.5 -88.5t-101 -65.5t-137.5 -24z" />
    <glyph glyph-name="uni3496" unicode="&#x3496;" horiz-adv-x="1000" 
d="M844 675h-63v-63h31v-500h-250v-250h-374v750h31v63h-63q-13 0 -22 -9t-9 -22v-813q0 -6 2.5 -12t6.5 -10t10 -6.5t12 -2.5h492l227 227v617q0 13 -9 22t-22 9zM625 -138v188h187zM750 675h-125v63q0 25 -18.5 43.5t-44.5 18.5h-124q-26 0 -44.5 -18.5t-18.5 -43.5v-63
h-125v-125h500v125zM562 675h-124v62v1h124v-1v-62z" />
    <glyph glyph-name="uni3497" unicode="&#x3497;" horiz-adv-x="1000" 
d="M193 234q23 0 39 17t16 41t-16 41.5t-39 17.5t-39 -17.5t-16 -41.5q0 -37 32 -53q11 -5 23 -5zM856 198l-51 55l-50 -54l-49 53l-50 -53l-57 52l-56 -55h-82q-27 -51 -74.5 -81t-103.5 -30q-87 0 -146.5 57.5t-59.5 146.5q0 91 61 162t145 71q56 0 102.5 -30t74.5 -79
h414l69 -74q8 -9 8 -24.5t-7 -23.5l-86 -93h-2z" />
    <glyph glyph-name="uni34BE" unicode="&#x34be;" 
d="M462 701h-135q-14 0 -21.5 6.5t-10.5 16.5t-3 22.5t2 23.5q1 11 4 24t8.5 22t14.5 12t22 -5q15 -9 34 -19.5t37 -21t33.5 -19t23.5 -13.5q10 -7 15 -15.5t4 -16t-8 -12.5t-20 -5zM540 702h134q14 0 21.5 6.5t10.5 16.5t3 22.5t-1 23.5q-2 11 -4.5 23.5t-8 21.5t-14.5 12
t-22 -4q-15 -9 -34 -19.5t-37.5 -21t-34 -19t-22.5 -13.5q-11 -7 -16 -15.5t-4 -16t8 -12.5t21 -5zM448 636h-290q-32 0 -41.5 -10.5t-9.5 -33.5v-88q0 -25 10.5 -37t41.5 -12h289v181zM557 636h286q32 0 43.5 -12.5t11.5 -35.5v-86q0 -24 -10.5 -35.5t-41.5 -11.5h-289v181
zM448 402h-307v-164v-65v-61v-52v-36q0 -51 29 -79t90 -28h188v485zM557 402h306v-375q-1 -51 -29 -80.5t-89 -29.5h-188v485z" />
    <glyph glyph-name="uni34D3" unicode="&#x34d3;" 
d="M806 25q0 -25 -10 -46.5t-27.5 -38t-41 -26t-50.5 -9.5h-355q-27 0 -50.5 9.5t-41 26t-27.5 38t-10 46.5v670q0 25 10 47t27.5 38.5t41 26t50.5 9.5h355q27 0 50.5 -9.5t41 -26t27.5 -38.5t10 -47v-670zM725 647h-452v-573h452v573zM499 46q-21 0 -36.5 -15t-15.5 -37
q0 -21 15.5 -36.5t36.5 -15.5q22 0 37 15.5t15 36.5q0 22 -15 37t-37 15zM579 732q0 8 -5 12.5t-11 4.5h-127q-5 0 -10.5 -4.5t-5.5 -12.5t5 -12.5t11 -4.5h127q6 0 11 4.5t5 12.5z" />
    <glyph glyph-name="uni34D9" unicode="&#x34d9;" 
d="M281 543q-27 -1 -53 -1h-83q-18 0 -36.5 -6t-32.5 -18.5t-23 -32t-9 -45.5v-76h912v41q0 16 -0.5 30t-0.5 18q0 13 -5 29t-17 29.5t-31.5 22.5t-49.5 9h-133v-97h-438v97zM955 310v-52q0 -23 0.5 -52t0.5 -58t-10.5 -47.5t-26 -30t-33 -16t-31.5 -4.5q-14 -1 -29.5 -0.5
t-29.5 0.5h-32l-45 128h-439l-44 -128h-29h-34q-20 0 -45 1q-25 0 -41 9.5t-25.5 23t-13.5 29.5t-4 30v167h911zM163 247q-12 0 -21 -8.5t-9 -21.5t9 -21.5t21 -8.5q13 0 22 8.5t9 21.5t-9 21.5t-22 8.5zM316 123q-8 -26 -14 -48q-5 -19 -10.5 -37t-7.5 -25t-3 -15t1 -14.5
t9.5 -10.5t21.5 -4h37h67h81h80h64h36q23 0 34 12t2 38q-5 13 -9.5 30.5t-9.5 34.5q-5 19 -11 39h-368zM336 498v228q0 11 2.5 23t10 21.5t20.5 15.5t34 6h188q31 0 51.5 -14.5t20.5 -52.5v-227h-327z" />
    <glyph glyph-name="uni34E3" unicode="&#x34e3;" horiz-adv-x="1028" 
d="M35 172q-32 34 -36 62t24 57q4 4 13 12t19 16.5t19 16.5t13 12q26 23 51 19.5t43 -23.5q10 -11 26.5 -27.5t33.5 -34.5t33 -34t25 -26q20 -20 46.5 -15.5t49.5 27.5q22 22 53.5 55t68.5 71.5t77 80.5t78 81.5t72 74.5t60 61q14 14 28.5 26t29.5 18.5t30.5 5.5t31.5 -11
q2 -2 11.5 -10.5t20.5 -18.5l20 -20l11 -12q14 -14 15 -29.5t-5 -31t-16.5 -29.5t-20.5 -24q-31 -31 -77 -77.5t-98 -100t-108 -110.5t-107.5 -110t-96 -98.5t-74.5 -74.5q-12 -12 -30.5 -18.5t-38.5 -7t-39.5 4.5t-32.5 17q-27 24 -57.5 54t-60.5 61t-57 59.5t-48 50.5z
" />
    <glyph glyph-name="uni34E4" unicode="&#x34e4;" 
d="M866 71q29 -30 42.5 -55t-4.5 -57q-4 -6 -11 -14.5t-14.5 -16.5t-15 -14.5t-12.5 -9.5q-25 -15 -59 -8t-61 34l-42 42l-56 56l-66 66l-72 72l-128 -128q-59 -59 -96 -97q-38 -38 -75.5 -47t-66.5 17l-7 7l-11 11l-11 11q-6 6 -7 8q-11 14 -13 28.5t2.5 28.5t13.5 27
t20 24q9 8 32 30l54 56q33 32 73.5 72t84.5 84q-48 48 -91.5 91t-78 77t-56.5 55.5t-27 26.5q-26 26 -26.5 51.5t17.5 51.5q8 10 23 23.5t21 17.5q30 20 54 17.5t48 -27.5l31 -31q23 -23 57 -56t76.5 -74.5t88.5 -86.5q38 38 74.5 74t68 67.5t57 56.5t42.5 42q24 23 52 30.5
t54 -12.5q1 -1 6.5 -5t11 -9t10.5 -9.5t7 -5.5q27 -26 26.5 -56.5t-26.5 -56.5q-18 -18 -44.5 -45t-59 -59t-68.5 -68l-76 -76q37 -36 72.5 -70.5t66 -64.5t55 -55t40.5 -41z" />
    <glyph glyph-name="uni34E5" unicode="&#x34e5;" 
d="M500 737q90 0 169.5 -34t139 -93.5t93.5 -139t34 -169.5t-34 -169.5t-93.5 -139t-139 -93.5t-169.5 -34t-170 34t-139 93.5t-93.5 139t-34.5 169.5t34.5 169.5t93.5 139t139 93.5t170 34zM691 239q29 0 48.5 18t19.5 46q0 29 -19.5 45t-48.5 16h-383q-29 0 -48.5 -16
t-19.5 -45q0 -28 19.5 -46t48.5 -18h383z" />
    <glyph glyph-name="uni355C" unicode="&#x355c;" horiz-adv-x="1029" 
d="M980 317q21 -20 22 -44t-16 -40q-19 -17 -44 -16t-40 14q-5 4 -30.5 28t-61 57.5t-76 72t-76.5 72.5t-62 59t-33 31q-32 29 -63 28t-61 -28q-10 -9 -37.5 -34.5t-63.5 -59.5t-76 -71t-74 -69t-58.5 -54.5t-29.5 -26.5q-15 -12 -40 -13t-43 15q-20 18 -19 43.5t17 40.5
q6 6 37 35t74 69t92.5 86t92 86t73 68.5t35.5 33.5q38 37 82 37.5t75 -29.5q6 -5 25 -23.5t46.5 -45t61.5 -59.5t69 -66.5t68.5 -66.5t61.5 -59.5t47 -45.5zM439 462q25 23 60 24.5t63 -24.5q3 -3 18 -17l38 -35q22 -21 49.5 -47t56.5 -52q67 -62 150 -139v-190
q0 -22 -16.5 -39t-44.5 -18h-189v155q0 33 -31 33h-191q-17 0 -23.5 -10t-6.5 -23q0 -6 -0.5 -30.5t-0.5 -52.5v-72h-183q-29 0 -46 13t-17 37v199q82 75 149 136q28 26 56 51.5t51 46.5t38.5 35.5t19.5 18.5z" />
    <glyph glyph-name="uni355D" unicode="&#x355d;" 
d="M908 -9q28 -32 30.5 -56t-18.5 -47q-24 -27 -53 -25.5t-56 23.5l-168 162q-45 -29 -96.5 -45t-108.5 -16q-78 0 -146 29.5t-119 80.5t-80.5 119t-29.5 146t29.5 146t80.5 119t119 80.5t146 29.5t146 -29.5t119 -80.5t80.5 -119t29.5 -146q0 -59 -17 -112t-48 -98l33 -33
q24 -24 50.5 -50t48.5 -49t28 -29zM442 112q52 0 98 19.5t80 53.5t53.5 80t19.5 98t-19.5 98t-53.5 80t-80 53.5t-98 19.5t-98 -19.5t-80 -53.5t-53.5 -80t-19.5 -98t19.5 -98t53.5 -80t80 -53.5t98 -19.5z" />
    <glyph glyph-name="uni355E" unicode="&#x355e;" 
d="M529 800q29 0 57.5 -6.5t53.5 -17.5t44.5 -25t30.5 -28q26 -32 38 -70.5t17 -73.5q5 -40 5 -81q7 -5 11 -13q4 -7 6.5 -18t0.5 -27q-2 -21 -8.5 -33.5t-14.5 -19.5q-9 -8 -19 -11q-5 -17 -10 -32q-5 -13 -11.5 -25.5t-14.5 -19.5q-19 -15 -31 -25.5t-16 -35.5
q-3 -15 -2 -30.5t8.5 -31t23 -29.5t43.5 -25q25 -10 54.5 -18t57.5 -18.5t49.5 -26t30.5 -42.5q5 -16 7.5 -39.5t2.5 -47.5t-3.5 -45t-10.5 -32q-5 -7 -28.5 -14t-58 -13.5t-77 -11.5t-85.5 -8.5t-82.5 -5.5t-68.5 -2t-67.5 2t-79.5 5.5t-81.5 8t-73.5 9.5t-56 10t-29 10
q-10 8 -15.5 49t4.5 106q5 37 29.5 56.5t57 31t67.5 20.5t62 26q21 13 32 25t16 24t5 25t-1 29q-2 23 -16 36.5t-31 27.5q-8 7 -14 19.5t-11 25.5q-5 15 -10 32q-7 2 -14 7q-6 5 -13 14t-12 26q-6 17 -4.5 31t5.5 24q4 11 13 21q-1 38 4 76q4 32 14.5 69t31.5 66
q19 28 42.5 45.5t48 27.5t49 13.5t47.5 3.5z" />
    <glyph glyph-name="uni355F" unicode="&#x355f;" 
d="M781 301q45 0 85 -17t70 -47t47.5 -70t17.5 -85t-17.5 -85t-47.5 -70t-70 -47.5t-85 -17.5q-46 0 -86 17.5t-70 47.5t-47 70t-17 85t17 85t47 70t70 47t86 17zM890 48q15 0 25.5 9t10.5 24t-10.5 25.5t-25.5 10.5h-216q-15 0 -25.5 -10.5t-10.5 -25.5t10.5 -24t25.5 -9
h216zM490 -9q4 -20 13 -42t26.5 -44.5t44 -44.5t67.5 -41q-27 -6 -63 -10q-31 -4 -75 -6.5t-101 -2.5q-29 0 -67 2t-79 5.5t-81 8.5t-73 10t-56 10t-29 10q-10 8 -15.5 49t4.5 106q6 37 30 56.5t56.5 31t67 20.5t61.5 26q21 13 32.5 25.5t16 24.5t4.5 25t-1 29
q-2 23 -16 36.5t-30 27.5q-8 7 -14.5 19.5t-11.5 25.5q-5 15 -10 32q-7 2 -14 7q-6 5 -12.5 14t-11.5 26q-6 17 -4.5 31t5.5 25t13 21q0 38 4 76q4 32 14 69t31 66q19 28 42.5 46t47.5 28t48.5 13.5t47.5 3.5q29 0 56 -7t50 -18t41 -25t29 -28q26 -32 38 -70.5t17 -73.5
q5 -40 5 -81q7 -5 11 -13q4 -7 6.5 -18t0.5 -28q-2 -21 -8.5 -33.5t-14.5 -19.5q-9 -8 -19 -11q-5 -17 -10 -32q-5 -13 -11.5 -25.5t-14.5 -19.5q-9 -8 -14 -16t-8 -16t-6.5 -17.5t-10.5 -19.5q-47 -72 -54.5 -130t5.5 -113z" />
    <glyph glyph-name="uni3560" unicode="&#x3560;" 
d="M719 178q33 0 61.5 -12.5t49.5 -34t33.5 -50t12.5 -61.5t-12.5 -61.5t-33.5 -49.5t-49.5 -33.5t-61.5 -12.5t-61.5 12.5t-50 33.5t-34 49.5t-12.5 61.5q0 10 1 18.5t3 17.5l-158 133q-14 -7 -30 -10t-33 -3q-33 0 -61.5 12.5t-50 33.5t-34 49.5t-12.5 61.5t12.5 61.5
t34 50t50 34t61.5 12.5q37 0 71 -17l150 140q-4 13 -4 32q0 33 12.5 61.5t34 49.5t50 33.5t61.5 12.5t61.5 -12.5t49.5 -33.5t33.5 -49.5t12.5 -61.5t-12.5 -61.5t-33.5 -50t-49.5 -34t-61.5 -12.5q-23 0 -43.5 6t-37.5 17l-143 -133q6 -23 6 -45q0 -28 -9 -52l147 -124
q18 10 38 15.5t42 5.5z" />
    <glyph glyph-name="uni3563" unicode="&#x3563;" 
d="M496 741q91 1 171 -33t140.5 -92.5t95.5 -138t36 -170.5q1 -86 -29.5 -162t-85 -134.5t-128 -96.5t-158.5 -47q-22 -3 -47 -5t-55.5 -3t-68 0t-84.5 6q-104 10 -154.5 26t-40.5 18q53 9 91 29q20 11 16.5 31.5t-19.5 38.5q-51 56 -82.5 130.5t-33.5 160.5q-1 91 33 171
t93 140t139 95t171 36zM691 301q0 -26 18 -44.5t44 -18.5t44.5 18.5t18.5 44.5t-18.5 44t-44.5 18t-44 -18t-18 -44zM440 301q0 -26 19 -45t45 -19q27 0 45.5 19t18.5 45q0 27 -18.5 45.5t-45.5 18.5q-26 0 -45 -18.5t-19 -45.5zM192 302q0 -26 18.5 -45t44.5 -19
q27 0 45.5 19t18.5 45t-18.5 44.5t-45.5 18.5q-26 0 -44.5 -18.5t-18.5 -44.5z" />
    <glyph glyph-name="uni3565" unicode="&#x3565;" horiz-adv-x="1086" 
d="M970 455q38 -52 57 -111t26.5 -115.5t7 -105.5t-0.5 -80q0 -6 -1 -14.5t-3.5 -17t-6 -14.5t-9.5 -6h-41q0 34 -10.5 58t-28 39t-41 22t-49.5 7t-48 -10t-38.5 -27t-26 -39.5t-9.5 -47.5h-18q-18 0 -31 13t-13 31v1v481q0 11 7.5 25.5t18.5 15.5q33 3 69 -2.5t71 -18.5
t66 -34t52 -50zM954 240q12 0 21 0.5t9 12.5q0 2 -0.5 3t-0.5 3q-11 49 -24 94.5t-44 77.5q-20 19 -43 27.5t-43.5 11t-34.5 1.5t-15 -1q-13 0 -22 -9.5t-9 -20.5v-91q0 -40 1 -89v-1q0 -5 7 -12t14 -7h184zM622 682l2 -651q0 -17 -11.5 -28t-27.5 -11h-273q0 59 -30 93
t-94 34q-61 0 -93.5 -31.5t-32.5 -95.5h-23q-17 0 -28 10t-11 29v520q0 24 9 47t25.5 42t38.5 30.5t48 11.5h501zM875 54q26 0 45 -19t19 -45q0 -27 -19 -46t-45 -19q-27 0 -45.5 19t-18.5 46q0 26 18.5 45t45.5 19zM187 55q27 0 45.5 -19t18.5 -46q0 -26 -18.5 -45
t-45.5 -19t-45.5 19t-18.5 45q0 27 18.5 46t45.5 19z" />
    <glyph glyph-name="uni356D" unicode="&#x356d;" 
d="M904 346q0 -16 -6.5 -30.5t-17 -25.5t-25.5 -17.5t-31 -6.5h-29q33 0 56.5 -22t23.5 -54t-23.5 -55t-56.5 -23h-30q34 0 57.5 -23t23.5 -55q0 -16 -9 -30.5t-24.5 -25t-35.5 -16.5t-41 -6q33 0 53.5 -23.5t20.5 -55.5q0 -20 -11.5 -34.5t-29 -24t-37.5 -14t-36 -4.5h-178
h-241q-32 0 -59.5 10.5t-48 30t-32 46.5t-11.5 61v306q0 20 1.5 40t7.5 37.5t18.5 32t33.5 23.5q20 8 45.5 24t53 38t53.5 49.5t47 58t33.5 63.5t12.5 67q1 30 8 50t18.5 32.5t25 18t27.5 5.5q36 0 60.5 -22t34.5 -72q2 -43 -5 -91q-6 -41 -21 -90t-46 -97h290
q33 0 56.5 -21.5t23.5 -53.5z" />
    <glyph glyph-name="uni356F" unicode="&#x356f;" 
d="M993 208q2 -12 -1 -29t-10 -34.5t-17 -31.5t-22 -20t-21 -6t-20 4q-10 3 -25 5.5t-30.5 1t-31 -6.5t-26.5 -17q-24 -25 -28 -57t9 -61q10 -20 -3 -40q-6 -8 -19 -16.5t-28.5 -15.5t-32.5 -11t-30 -4q-9 0 -17 7t-11 15h-1q-11 31 -37.5 53.5t-61.5 22.5
q-34 0 -61.5 -22.5t-38.5 -52.5q-5 -12 -15 -17.5t-22 -5.5q-14 0 -31.5 5t-35 12.5t-31.5 17.5t-21 20q-5 7 -5.5 16.5t7.5 26.5q11 23 8.5 52.5t-25.5 54.5q-14 15 -34 19.5t-38 3.5q-21 -1 -43 -8q-14 -4 -28 2q-11 4 -20.5 18.5t-17 32t-11.5 36t-2 30.5q3 22 20 28
q30 12 54 39.5t24 61.5q0 35 -24 61t-54 38q-9 3 -15 14.5t-6 23.5q0 13 4 29t10.5 31t15 27.5t18.5 18.5q8 5 15.5 4t16.5 -4q30 -12 62.5 -7.5t57.5 28.5q12 12 17.5 29.5t7 34.5t0 31t-2.5 20q-2 6 -3.5 14t1.5 14q6 14 21.5 24.5t33.5 17.5t35 10.5t27 3.5
q13 0 20.5 -8.5t10.5 -17.5q11 -27 36 -47.5t59 -20.5q35 0 62 19.5t38 49.5q4 8 12.5 16.5t17.5 8.5q14 0 30.5 -4t32.5 -11t29.5 -18t21.5 -24q5 -8 3 -17.5t-4 -13.5q-13 -29 -8 -61t29 -56t59 -26.5t65 11.5q8 5 19.5 4t19.5 -9q15 -14 26.5 -42.5t15.5 -57.5
q2 -17 -5.5 -26.5t-15.5 -12.5q-31 -11 -53 -38.5t-22 -62.5q0 -34 18.5 -59.5t48.5 -36.5q7 -4 12 -8q11 -9 15 -23zM528 118q45 0 85 17t69.5 47t46.5 69.5t17 84.5t-17 84.5t-46.5 69t-69.5 46.5t-85 17t-84.5 -17t-69 -46.5t-46.5 -69t-17 -84.5t17 -84.5t46.5 -69.5
t69 -47t84.5 -17z" />
    <glyph glyph-name="uni3570" unicode="&#x3570;" 
d="M841 612q30 0 49.5 -10t31 -25t16 -32.5t4.5 -32.5q0 -7 -0.5 -11t-0.5 -7v-6h-66v-525q0 -20 -8 -38.5t-23 -32.5t-36.5 -22.5t-49.5 -8.5h-446q-26 0 -49 8t-39.5 22.5t-26 35t-9.5 46.5v515h-62q-1 1 -1 5q-1 5 -1 31q0 13 6 29t18 29.5t31 22.5t45 9h89v61
q0 26 18 44.5t44 18.5h313q35 0 48.5 -18.5t13.5 -44.5v-62q21 -1 45 -1h46zM375 612h313v63h-313v-63zM344 -21q32 0 32 41v464h-62v-464q0 -21 6.5 -31t23.5 -10zM533 -20q17 0 23 9.5t6 30.5v464h-62v-464q0 -40 33 -40zM721 -18q18 0 24 9.5t6 30.5v462h-63v-462
q0 -40 33 -40z" />
    <glyph glyph-name="uni3572" unicode="&#x3572;" 
d="M147 379q37 0 57 -23.5t20 -50.5v-11q0 -34 -17.5 -57.5t-58.5 -23.5h-7q-38 0 -60.5 21t-22.5 58v14q0 13 5.5 26t15.5 23.5t25 17t33 6.5h10zM507 379q37 0 57 -23.5t20 -50.5v-11q0 -34 -17.5 -57.5t-58.5 -23.5h-7q-38 0 -60.5 21t-22.5 58v14q0 13 5.5 26t15.5 23.5
t25 17t33 6.5h10zM867 379q37 0 57 -23.5t20 -50.5v-11q0 -34 -17.5 -57.5t-58.5 -23.5h-7q-38 0 -60.5 21t-22.5 58v14q0 13 5.5 26t15.5 23.5t25 17t33 6.5h10z" />
    <glyph glyph-name="uni3573" unicode="&#x3573;" 
d="M500 747q93 0 174.5 -35.5t142 -96t96 -142.5t35.5 -175t-35.5 -174.5t-96 -142t-142 -96t-174.5 -35.5t-175 35.5t-142.5 96t-96 142t-35.5 174.5t35.5 175t96 142.5t142.5 96t175 35.5zM554 360q0 24 -15.5 40.5t-38.5 16.5t-39 -16.5t-16 -40.5v-335q0 -24 16 -38.5
t39 -14.5t39 15t16 39zM500 484q29 0 49.5 20.5t20.5 49.5t-20.5 49.5t-49.5 20.5t-50 -20.5t-21 -49.5t21 -49.5t50 -20.5z" />
    <glyph glyph-name="uni3574" unicode="&#x3574;" 
d="M502 747q93 0 174.5 -35.5t142.5 -96t96 -142t35 -174.5t-35 -174t-96 -142t-142.5 -96t-174.5 -35t-174 35t-142 96t-96 142t-35 174t35 174.5t96 142t142 96t174 35.5zM503 -7q26 0 43.5 17.5t17.5 42.5q0 26 -17.5 43.5t-43.5 17.5t-43.5 -17.5t-17.5 -43.5
q0 -25 17.5 -42.5t43.5 -17.5zM554 239q-1 16 20 34t47 40t48 49.5t24 63.5q2 39 -8 73t-33 58.5t-59.5 39t-85.5 14.5q-61 0 -101.5 -21.5t-65.5 -52t-35 -63t-9 -54.5q1 -26 16.5 -38t33.5 -12.5t33 10t15 30.5q0 12 7.5 29.5t20.5 33.5t31.5 27t41.5 11q45 0 72 -22.5
t25 -56.5q0 -17 -10 -31.5t-25.5 -28t-33 -27t-33 -28t-26 -31.5t-11.5 -37l1 -38q0 -15 14 -28.5t37 -14.5q23 1 36.5 15t12.5 32v24z" />
    <glyph glyph-name="uni3575" unicode="&#x3575;" 
d="M766 200q17 -79 30 -143q6 -27 11 -54t9.5 -49t7.5 -37.5t4 -19.5q3 -20 -9 -26.5t-27 -6.5q-5 0 -14.5 3.5t-14.5 5.5l-261 152q-71 -42 -129 -75q-25 -14 -49.5 -28t-44.5 -26t-34.5 -20t-19.5 -10q-10 -5 -20.5 -3.5t-19 7.5t-12.5 14.5t-2 17.5q1 4 5 19.5t9 37
t11.5 47.5t13.5 53q15 62 34 140q-59 51 -106 91q-20 17 -39.5 33.5t-35 30t-25.5 22t-11 9.5q-12 11 -20.5 24.5t-6.5 27.5t11 22t20 10l309 28l115 268q6 16 17 27.5t30 11.5q10 0 17.5 -4.5t12.5 -10.5t8.5 -12t5.5 -10l112 -268l309 -29q20 -5 28 -12t8 -22
q0 -14 -8.5 -24.5t-21.5 -25.5z" />
    <glyph glyph-name="uni3576" unicode="&#x3576;" 
d="M521 538q33 41 70 74q32 27 72.5 49t84.5 19q62 -5 103.5 -29.5t66 -62t33.5 -85t6 -97.5t-17.5 -95.5t-36 -85t-47.5 -73t-52 -60.5q-40 -41 -83.5 -76.5t-83 -61t-72 -40.5t-50.5 -15q-20 -1 -51 14t-68 40.5t-78 60.5t-81 74q-26 25 -56 58t-56.5 72.5t-45.5 85.5
t-21 98t11 97.5t39 81.5t64 60.5t86 34.5q24 5 48 1.5t47 -12t44 -21.5t40 -27q44 -33 84 -79z" />
    <glyph glyph-name="uni3579" unicode="&#x3579;" 
d="M339 35q19 0 36 -7t30 -19.5t20 -29.5t7 -36t-7 -36t-20 -29.5t-30 -20t-36 -7.5q-20 0 -36.5 7.5t-29.5 20t-20 29.5t-7 36t7 36t20 29.5t29.5 19.5t36.5 7zM755 33q19 0 36.5 -7t30 -19.5t20 -29.5t7.5 -36t-7.5 -36t-20 -29.5t-30 -20t-36.5 -7.5t-36 7.5t-29.5 20
t-20 29.5t-7.5 36t7.5 36t20 29.5t29.5 19.5t36 7zM923 601q28 0 43.5 -7.5t22 -18.5t6 -23.5t-3.5 -21.5t-12.5 -37t-21.5 -61.5t-23.5 -66.5t-17.5 -52q-13 -40 -33 -55.5t-49 -15.5h-34h-65h-85h-93h-248l15 -90h504q48 0 48 -41q0 -20 -9.5 -34.5t-37.5 -14.5h-48h-93
h-115h-117h-96h-55q-20 0 -33.5 9t-22.5 23.5t-14.5 31.5t-8.5 32q-1 6 -5.5 29t-11 57.5t-14.5 77t-16 85.5q-19 101 -43 225h-75q-15 0 -25 7.5t-16.5 18t-9 22.5t-2.5 22q0 20 13.5 33t36.5 13h22h20h25h34q20 0 32 -6t19 -15t10 -19t5 -17q2 -8 4 -22.5t4 -29.5
q3 -18 6 -38h684z" />
    <glyph glyph-name="uni357B" unicode="&#x357b;" 
d="M875 461q0 -10 -0.5 -19t-1.5 -19q-9 -83 -36.5 -159.5t-69.5 -147t-97 -135.5t-119 -125q-9 -11 -23 -11q-15 0 -24 11q-64 60 -119.5 126t-98 138t-70 149.5t-35.5 161.5q0 8 -0.5 15t-0.5 15q0 70 27.5 132t74.5 108t110.5 73t135.5 27t135 -27t110 -73t74.5 -108
t27.5 -132zM528 305q33 0 62 12.5t50.5 33.5t34 49.5t12.5 60.5t-12.5 60.5t-34 49.5t-50.5 33.5t-62 12.5t-62 -12.5t-51 -33.5t-34.5 -49.5t-12.5 -60.5t12.5 -60.5t34.5 -49.5t51 -33.5t62 -12.5z" />
    <glyph glyph-name="uni357C" unicode="&#x357c;" 
d="M462 170q-2 -11 -5 -17t-14 -13q-26 -16 -56 -26t-57.5 -22t-48 -31.5t-25.5 -55.5q-2 -11 -2.5 -21.5t-1.5 -19.5q-1 -2 -2 -3.5t-2 -3.5q-39 3 -79 7t-73.5 9t-56.5 10t-29 10q-9 7 -13.5 42t3.5 91q5 31 25.5 47.5t48.5 26t57.5 17.5t52.5 22q18 12 27.5 22t13.5 20.5
t4 21.5t-1 24q-2 20 -13.5 31.5t-25.5 23.5q-8 5 -13.5 16t-9.5 22q-4 12 -8 27q-6 2 -12 6q-5 4 -10.5 12t-10.5 22t-4 26.5t5 21.5q4 11 11 18q-1 32 3 65q4 27 13 58t27 56q16 24 36 39t40.5 23.5t41.5 11.5t41 3q50 0 90 -21t60 -45q13 -17 16.5 -31.5t9.5 -33.5
q-19 -11 -40.5 -32.5t-37.5 -43.5q-20 -28 -30 -62t-15 -63q-5 -35 -5 -70q-8 -9 -12 -20q-4 -10 -5 -23.5t4 -29.5q5 -17 11 -26t11 -14q6 -6 12 -8q4 -16 8 -30q4 -12 9.5 -24.5t13.5 -18.5q7 -6 11 -10t6.5 -7.5t3 -9.5t2.5 -16zM995 -14q4 -14 6.5 -34t2.5 -40.5
t-3 -38.5t-9 -27q-4 -6 -23.5 -12t-48.5 -11t-64 -9.5t-70.5 -7.5t-68.5 -5t-58 -2t-57.5 2t-67.5 5t-69 6.5t-62.5 8t-48 9t-24.5 8.5q-8 7 -13 42t3 90q5 32 25.5 48t48.5 26t57.5 17.5t52.5 22.5q18 12 27.5 22t14 20t4.5 21t-1 25q-2 20 -14 31.5t-26 22.5
q-7 6 -12.5 17t-9.5 22q-4 12 -8 27q-6 2 -12 6q-5 4 -10.5 12t-10.5 22t-4 26.5t5 20.5q4 10 11 18q-1 32 3 65q4 28 12.5 58.5t26.5 56.5q16 24 36 39t41 23.5t42 11.5t40 3q51 0 91 -21t59 -45q22 -27 32.5 -60.5t15.5 -62.5q5 -34 4 -68q5 -4 9 -11q3 -6 5.5 -15.5
t0.5 -23.5q-2 -18 -8 -29t-12 -17q-7 -7 -16 -9q-4 -15 -8 -27q-4 -11 -10 -22t-13 -16q-8 -7 -14.5 -12t-11.5 -10.5t-8.5 -12.5t-5.5 -17q-2 -13 -1.5 -26.5t6.5 -26.5t19.5 -25t37.5 -21q21 -9 46.5 -15.5t49 -15.5t42 -23t26.5 -36z" />
    </font>
</defs>
</svg>
